<svg xmlns="http://www.w3.org/2000/svg" width="35" height="35" viewBox="0 0 35 35">
    <defs>
        <filter id="44hvdpm14a" color-interpolation-filters="auto">
            <feColorMatrix in="SourceGraphic" values="0 0 0 0 1.000000 0 0 0 0 1.000000 0 0 0 0 1.000000 0 0 0 1.000000 0"/>
        </filter>
    </defs>
    <g fill="none" fill-rule="evenodd">
        <g>
            <g transform="translate(-197.000000, -183.000000) translate(197.000000, 183.000000)">
                <circle cx="17.5" cy="17.5" r="17.5" fill="#DAE8FC" opacity=".2"/>
                <g filter="url(#44hvdpm14a)">
                    <g fill="#343433" fill-rule="nonzero">
                        <path d="M13.421 7.238c0 .97-.236 1.907-.648 2.714l-.53-.937-.266-.387c.147-.42.236-.905.236-1.39 0-2.23-1.65-4.071-3.713-4.071s-3.713 1.81-3.713 4.071c0 .485.089.97.236 1.39-.118.096-.206.226-.265.387l-.53.937c-.413-.807-.65-1.712-.65-2.714 0-3.005 2.211-5.428 4.951-5.428 2.74 0 4.892 2.455 4.892 5.428z" transform="translate(9.000000, 8.000000)"/>
                        <path d="M17 4.615v9.29c0 .3-.237.571-.562.571h-.71l-2.601-4.209c.562-.872.887-1.924.887-3.036 0-3.097-2.484-5.592-5.5-5.592-3.015 0-5.498 2.525-5.498 5.592 0 1.112.325 2.164.887 3.036L1.3 14.477H.56c-.295 0-.561-.241-.561-.572v-9.32c0-.962.503-1.864 1.3-2.375C3.756.647 9.373-1.879 15.73 2.24 16.527 2.751 17 3.653 17 4.615z" transform="translate(9.000000, 8.000000)"/>
                        <g>
                            <path d="M13.305 6.287L9.732.537C9.528.208 9.15 0 8.773 0H4.648c-.378 0-.755.209-.959.536L.116 6.287C2.063 6.913 4.3 7.3 6.711 7.39c2.382-.09 4.648-.477 6.594-1.103z" transform="translate(9.000000, 8.000000) translate(1.789474, 9.047619)"/>
                            <path d="M6.71 8.045C4.3 7.955 1.976 7.57 0 6.913v1.669c0 .715.552 1.281 1.22 1.281l5.49.09 5.491-.09c.697 0 1.22-.596 1.22-1.281V6.913c-1.975.656-4.3 1.043-6.71 1.132z" transform="translate(9.000000, 8.000000) translate(1.789474, 9.047619)"/>
                        </g>
                    </g>
                </g>
            </g>
        </g>
    </g>
</svg>
