<svg xmlns="http://www.w3.org/2000/svg" viewBox="0 0 35 35"><g fill="#DAE8FC" fill-rule="evenodd"><circle cx="17.5" cy="17.5" r="17.5" opacity=".2"/><path d="M21.058 17.782l3.888 2.245-1.714 2.967-3.888-2.245v4.483H15.92v-4.483l-3.888 2.245-1.713-2.967 3.888-2.245-3.888-2.244 1.713-2.967 3.888 2.245V10.32h3.424v4.496l3.888-2.245 1.714 2.967z"/><path fill-rule="nonzero" d="M20.896 18.059l1.317.76 2.091 1.207.48.276-.115-.438-.578 1-.921 1.597c-.07.123-.143.246-.213.37l.438-.116-1.316-.76c-.698-.401-1.394-.805-2.092-1.206a59.1 59.1 0 00-.48-.277.322.322 0 00-.481.277v4.489l.32-.32h-3.424l.32.32v-4.489a.324.324 0 00-.482-.277l-1.317.76c-.697.402-1.393.805-2.09 1.206a59.1 59.1 0 01-.48.277l.438.115-.578-1-.922-1.596-.212-.37-.116.438c.439-.252.879-.507 1.317-.76.698-.401 1.394-.804 2.091-1.206.16-.093.32-.186.48-.277a.322.322 0 000-.552l-1.316-.76c-.698-.401-1.394-.805-2.092-1.206a59.1 59.1 0 00-.48-.277l.116.438.577-1 .922-1.596c.07-.124.142-.247.213-.37l-.439.115 1.317.76 2.091 1.207.48.276a.323.323 0 00.482-.276v-4.49l-.32.32h3.424l-.32-.32v4.49c0 .243.272.396.481.276.439-.252.879-.507 1.317-.76.698-.401 1.394-.804 2.091-1.206.16-.093.32-.186.48-.277l-.438-.115.578 1 .921 1.597c.07.123.143.246.213.37l.115-.439-1.317.76c-.697.402-1.393.805-2.09 1.206a59.1 59.1 0 01-.48.277c-.146.083-.209.293-.116.439a.328.328 0 00.438.115l1.317-.76 2.091-1.207.48-.276a.327.327 0 00.116-.439l-.578-1-.922-1.597-.212-.37a.326.326 0 00-.439-.114l-1.317.76c-.697.401-1.393.804-2.09 1.206a59.1 59.1 0 01-.48.277l.48.277v-4.49a.324.324 0 00-.32-.32h-3.422a.325.325 0 00-.32.32v4.49l.481-.277-1.316-.76-2.092-1.207-.48-.276a.325.325 0 00-.438.115l-.578 1-.921 1.597c-.07.123-.143.246-.213.37a.326.326 0 00.115.438c.439.252.879.507 1.317.76.698.401 1.394.804 2.091 1.206.16.093.32.186.48.277v-.553l-1.317.76c-.697.401-1.393.805-2.09 1.206a59.1 59.1 0 01-.48.277.325.325 0 00-.116.438l.578 1 .921 1.597.213.37c.086.15.288.201.438.115l1.317-.76 2.09-1.205c.16-.093.32-.186.48-.277l-.481-.277v4.49c0 .172.147.32.32.32h3.424c.173 0 .32-.148.32-.32v-4.49l-.482.277 1.317.76c.698.401 1.394.805 2.091 1.206.16.093.32.186.48.277.149.086.35.035.439-.115l.577-1 .922-1.597.213-.37a.326.326 0 00-.116-.438l-1.316-.76c-.698-.402-1.394-.805-2.092-1.206a59.1 59.1 0 00-.48-.277c-.145-.083-.356-.039-.438.115a.322.322 0 00.115.435z"/></g></svg>