<svg xmlns="http://www.w3.org/2000/svg" viewBox="0 0 19 14"><path d="M14.63 9.254v-4.07h-1.497v1.344H3.456V5.184H1.958v4.032a2.287 2.287 0 00-1.536 2.15c0 1.268 1.037 2.266 2.266 2.266s2.266-1.037 2.266-2.266c0-.998-.653-1.843-1.536-2.15v-1.19h9.638v1.19a2.287 2.287 0 00-1.536 2.15 2.27 2.27 0 002.266 2.266 2.27 2.27 0 002.265-2.266c.115-.96-.537-1.804-1.42-2.112zM17.971.307c-.307-.269-.806-.192-1.075.115l-1.46 1.767H13.44c-.038-1.114-.845-2.035-1.882-2.035H4.915c-.998 0-1.843.921-1.881 2.035H.96a.77.77 0 00-.768.768.77.77 0 00.768.768h14.822c.23 0 .423-.115.576-.269l1.69-2.035c.269-.346.23-.845-.077-1.114z" fill="#FFF"/></svg>