<svg xmlns="http://www.w3.org/2000/svg" viewBox="0 0 59 45"><g fill="none" fill-rule="evenodd"><path d="M.177-6.369h58.099V51.73H.177z"/><g fill-rule="nonzero"><path fill="#10CCCB" d="M44.698 37.514a3.514 3.514 0 00-3.51 3.51 3.514 3.514 0 003.51 3.51 3.515 3.515 0 003.51-3.51 3.515 3.515 0 00-3.51-3.51zm0 5.014c-.83 0-1.505-.674-1.505-1.504a1.506 1.506 0 013.009 0c0 .83-.675 1.504-1.504 1.504zM13.61 37.514a3.515 3.515 0 00-3.51 3.51 3.515 3.515 0 003.51 3.51 3.515 3.515 0 003.51-3.51 3.515 3.515 0 00-3.51-3.51zm0 5.014a1.505 1.505 0 010-3.008c.83 0 1.504.675 1.504 1.504 0 .83-.675 1.504-1.504 1.504z"/><path fill="#FFF" d="M37.249 39.937H19.198c0 1.108.898 2.006 2.005 2.006h18.051a2.006 2.006 0 00-2.005-2.006zm-.674-4.575l-6.058-3.894 5.985-3.847.003.004 3.394-2.139a2.006 2.006 0 00-2.766-.628c-.01.006-.017.014-.025.02l-.005-.008-8.425 5.416-7.63-4.904c-.03-.022-.055-.049-.087-.069-.028-.017-.057-.026-.085-.042l-.01-.006v.001a2 2 0 00-2.671.675l2.26 1.423 6.383 4.105-6.43 4.135-2.285 1.438a2 2 0 002.671.675l.001.001.008-.005c.028-.016.058-.025.086-.043.033-.021.059-.048.091-.07l7.698-4.95 8.496 5.463.005-.008c.009.006.016.014.026.02.937.59 2.176.31 2.766-.628l-3.394-2.139-.002.004zM54.798 19.38H40.802l11.482-4.248a2.005 2.005 0 001.185-2.578l-2.261-6.113a2.006 2.006 0 00-2.577-1.186l-.47.174-1.217-3.291A2.008 2.008 0 0044.366.952l-7.524 2.783-1.881.697 1.914 5.172-1.882.696-2.856 1.057H.144c0 1.107.898 2.005 2.006 2.005.053 0 .103-.012.155-.015h29.333l.548 1.48-.005.002 1.391 3.763a2.005 2.005 0 001.185-2.578c-.008-.02-.02-.037-.027-.057l.012-.004-1.12-3.027c.062-.017.125-.026.186-.049l13.638-5.045 1.882-.695 2.261 6.113-1.881.696L35.02 19.38H2.15v-1.99h-.002l.002-.016a2.006 2.006 0 00-2.006-2.005v7.521h58.164a3.51 3.51 0 00-3.51-3.51zM38.756 8.907l-1.218-3.291 5.643-2.088 1.882-.695 1.217 3.29.565-.208-9.656 3.572 1.567-.58z"/></g></g></svg>