<svg xmlns="http://www.w3.org/2000/svg" viewBox="0 0 36 35"><g fill="none" fill-rule="evenodd"><ellipse cx="18" cy="17.5" fill="#DAE8FC" opacity=".2" rx="18" ry="17.5"/><path d="M25.127 9H12.681a.89.89 0 00-.889.889v1.778h-.889c-.49 0-.889.399-.889.889s.399.889.889.889h.889v1.778h-.889c-.49 0-.889.399-.889.889s.399.889.889.889h.889v1.778h-.889c-.49 0-.889.399-.889.889s.399.889.889.889h.889v1.778h-.889c-.49 0-.889.399-.889.889s.399.889.889.889h.889v1.778c0 .49.399.889.889.889h12.446a.89.89 0 00.889-.889V9.889A.89.89 0 0025.127 9zm-2.667 6.755a.357.357 0 01-.357.357h-6.398a.356.356 0 01-.357-.357v-3.731c0-.196.161-.357.357-.357h6.402c.196 0 .357.158.357.357v3.731h-.004z" fill="#FFF" fill-rule="nonzero"/></g></svg>