<svg width="35" height="35" viewBox="0 0 35 35" xmlns="http://www.w3.org/2000/svg">
    <g fill="none" fill-rule="evenodd">
        <circle fill="#DAE8FC" opacity=".2" cx="17.5" cy="17.5" r="17.5"/>
        <path d="M24.001 10H12A2 2 0 0 0 10 12V24c0 1.104.895 1.999 2 1.999H24A1.998 1.998 0 0 0 26 24.001V12C26 10.895 25.106 10 24.001 10zm-4.203 3.697h2.186a.446.446 0 0 1 0 .892h-2.186a.446.446 0 0 1 0-.892zm0 2.572h3.243a.446.446 0 0 1 0 .892h-3.243a.446.446 0 0 1 0-.892zm-3.595 6.035h-1.677a.446.446 0 0 1 0-.892h1.677a.446.446 0 0 1 0 .892zm0-2.571h-3.422a.446.446 0 0 1 0-.892h3.422a.446.446 0 0 1 0 .892zm0-2.572H12.96a.446.446 0 0 1 0-.892h3.243a.446.446 0 0 1 0 .892zm0-2.572h-2.187a.446.446 0 0 1 0-.892h2.187a.446.446 0 0 1 0 .892zm2.244 8.208a.446.446 0 0 1-.892 0v-9.593a.446.446 0 0 1 .892 0v9.593zm3.028-.493h-1.678a.446.446 0 0 1 0-.892h1.678a.446.446 0 0 1 0 .892zm1.744-2.571h-3.421a.446.446 0 0 1 0-.892h3.421a.446.446 0 0 1 0 .892z" fill="#FFF" fill-rule="nonzero"/>
    </g>
</svg>
