<svg width="41" height="41" viewBox="0 0 41 41" xmlns="http://www.w3.org/2000/svg">
    <g fill="none" fill-rule="evenodd">
        <path d="M30.77 4.351V2.884c.014-.777.587-1.434 1.436-1.467h.059c.777.03 1.421.616 1.438 1.467V4.35h1.471c.053 0 .053 0 .105.002 2.24.069 4.247 2.001 4.291 4.344.053 8.821 0 17.643 0 26.463-.013 2.286-1.98 4.353-4.346 4.396-9.8.06-19.599.001-29.397.001-2.285-.015-4.352-1.967-4.396-4.346-.056-8.821-.001-17.643-.001-26.464.014-2.296 2-4.381 4.397-4.396h1.47V2.884c.017-.777.59-1.434 1.438-1.467h.06c.776.03 1.42.616 1.437 1.467V8.75c-.022 1.133-1.557 1.898-2.451 1.087a1.524 1.524 0 0 1-.484-1.087V7.283c-.495-.002-.99-.002-1.484.001-.76.015-1.434.682-1.449 1.448-.054 8.814-.054 17.628 0 26.442.015.758.683 1.434 1.449 1.448 9.792.06 19.584.06 29.375 0 .752-.013 1.424-.668 1.448-1.43.163-8.818.054-17.64 0-26.46-.014-.762-.67-1.443-1.47-1.448h-1.463v1.467c-.025 1.277-2.055 2.057-2.77.675a1.46 1.46 0 0 1-.163-.675V7.284h-8.803v1.467c-.025 1.277-2.054 2.057-2.77.675a1.46 1.46 0 0 1-.164-.675V7.284h-4.4c-.124-.006-.156-.003-.278-.026-1.152-.222-1.636-2.105-.394-2.744.206-.107.436-.153.671-.163h4.4V2.884c.017-.777.59-1.434 1.439-1.467h.058c.777.03 1.422.616 1.438 1.467V4.35h8.803z" fill="#FFF" stroke="#071829"/>
        <path d="M19.033 21.954v-4.402c.009-.267.034-.34.083-.483a1.49 1.49 0 0 1 1.22-.974c.158-.017.196-.009.246-.007.268.023.341.051.48.11.48.198.838.668.896 1.191.008.072.008.091.01.163v4.402h4.4l.082.002c.336.027.443.079.627.18.849.47.996 1.874.14 2.48a1.548 1.548 0 0 1-.85.271h-4.4v4.4c-.009.338-.054.448-.145.638-.433.899-1.887 1.1-2.518.211a1.542 1.542 0 0 1-.271-.848v-4.4h-4.4c-.337-.01-.447-.055-.637-.146-.891-.43-1.107-1.883-.213-2.518.247-.174.548-.263.85-.27h4.4z" fill="#10CCCB"/>
    </g>
</svg>
