<svg xmlns="http://www.w3.org/2000/svg" viewBox="0 0 36 35"><g fill="none" fill-rule="evenodd"><ellipse cx="18" cy="17.5" fill="#022236" opacity=".2" rx="18" ry="17.5"/><g fill="#FFF" fill-rule="nonzero"><path d="M20.884 8h-6.768A1.11 1.11 0 0013 9.133V25h2.477v-5.808h4.046V25H22V9.133A1.11 1.11 0 0020.884 8zM17.5 15a2.493 2.493 0 01-2.5-2.484C15 11.13 16.104 10 17.5 10s2.5 1.129 2.5 2.484A2.5 2.5 0 0117.5 15zm7.445-4H23v12h3V12.136c0-.639-.462-1.136-1.055-1.136zM9 12.136V23h3V11h-1.945C9.462 11 9 11.497 9 12.136z"/><path d="M17.929 11h-.858v1.056H16v.845h1.071V14h.858v-1.099H19v-.845h-1.071z"/></g></g></svg>