<svg xmlns="http://www.w3.org/2000/svg" viewBox="0 0 36 33"><g fill="#7B92AB"><path d="M14.5 19.042c-1.28-1.237-2.543-1.527-3.59-1.475a.545.545 0 00-.474.344c-.834 2.177.477 4.41 2.36 5.176l.104.043c1.74.705 3.803.284 4.936-1.58a.574.574 0 00-.353-.849c-.963-.227-1.981-.692-2.984-1.659M1.148 32.11a1.148 1.148 0 01-.752-2.015l8.49-7.364a1.148 1.148 0 011.503 1.734L1.9 31.83a1.15 1.15 0 01-.751.28M25.47 11.012a1.146 1.146 0 01-.752-2.015l4.438-3.85a1.147 1.147 0 111.503 1.734l-4.438 3.85a1.135 1.135 0 01-.75.281"/><path d="M31.511 18.003c-.32 0-.64-.135-.867-.396L18.535 3.647a1.149 1.149 0 01.115-1.619 1.149 1.149 0 011.619.116l12.109 13.959a1.15 1.15 0 01-.867 1.9m2.629-6.051c-.32 0-.64-.134-.867-.395L24.898 1.9A1.148 1.148 0 1126.631.396l8.376 9.656a1.149 1.149 0 01-.867 1.9"/><path d="M14.23 26.954a6.71 6.71 0 01-5.083-2.316l-.61-.702a6.674 6.674 0 01-1.627-4.883 6.687 6.687 0 012.301-4.604l12.4-10.756 9.422 10.864-12.4 10.755a6.694 6.694 0 01-4.402 1.642m7.15-20.022l-10.666 9.251a4.398 4.398 0 00-1.516 3.033 4.404 4.404 0 001.072 3.216l.609.703a4.435 4.435 0 006.25.443l10.666-9.252-6.415-7.394z"/><path d="M26.06 18.505a1.15 1.15 0 01-.868-.396l-.97-1.266a1.15 1.15 0 01.116-1.62 1.15 1.15 0 011.618.116l.97 1.266a1.15 1.15 0 01-.867 1.9m-3.764 3.265c-.32 0-.64-.134-.867-.396l-1.93-2.225a1.15 1.15 0 01.115-1.62 1.153 1.153 0 011.62.115l1.928 2.226a1.149 1.149 0 01-.866 1.9"/></g></svg>