<svg xmlns="http://www.w3.org/2000/svg" viewBox="0 0 22 22"><path d="M11 0h.001v.006c3.04 0 5.79 1.23 7.777 3.217s3.216 4.735 3.216 7.775H22V11h-.006c0 3.041-1.23 5.791-3.217 7.778a10.956 10.956 0 01-7.775 3.216V22H11v-.006c-3.04 0-5.79-1.23-7.777-3.217a10.962 10.962 0 01-3.216-7.775H0V11h.006c0-3.041 1.23-5.79 3.217-7.777S7.959.007 10.998.006V0H11zm1.248 9.768V4.917c0-.672-.548-1.22-1.22-1.22h-.038c-.672 0-1.22.548-1.22 1.22v7.316h6.803c.673 0 1.22-.549 1.22-1.22v-.025c0-.672-.548-1.22-1.22-1.22h-4.325z" fill="#DAE8FC" opacity=".197"/></svg>