<svg xmlns="http://www.w3.org/2000/svg" viewBox="0 0 54 59"><g fill="none"><path fill="#34A9FF" d="M28.665 4.158c0 .416-.34.756-.756.756h-2.394c-.416 0-.756-.34-.756-.756s.34-.756.756-.756h2.394c.416 0 .756.34.756.756zM6.363 15.977l-1.197 2.066a.755.755 0 01-1.033.278.76.76 0 01-.277-1.034l1.197-2.079a.75.75 0 011.033-.277c.353.214.479.68.277 1.046zm-.277 27.291a.681.681 0 01-.378.101.753.753 0 01-.655-.378l-1.197-2.079a.759.759 0 01.277-1.033.76.76 0 011.033.277l1.197 2.08a.767.767 0 01-.277 1.032zm22.579 10.786c0 .416-.34.756-.756.756h-2.394c-.416 0-.756-.34-.756-.756s.34-.756.756-.756h2.394c.416 0 .756.34.756.756zm20.903-13.129l-1.197 2.079a.753.753 0 01-1.033.277.75.75 0 01-.277-1.033l1.197-2.08a.75.75 0 011.033-.276.745.745 0 01.277 1.033zm-.277-22.605a.756.756 0 01-1.033-.277l-1.197-2.079a.75.75 0 01.277-1.033.76.76 0 011.033.277l1.197 2.08a.744.744 0 01-.277 1.032z"/><path fill="#FFF" d="M49.367 31.815h1.814a2.253 2.253 0 002.256-2.255v-1.046a2.253 2.253 0 00-2.256-2.256h-1.84c-1.07 0-1.978-.73-2.217-1.776-.113-.479-.24-.958-.378-1.424l.832-.479c.831-.479 1.827-.705 2.898-.668.478.013.907-.088 1.297-.302.895-.517 1.361-1.588 1.298-3.011-.05-1.248-.504-2.659-1.272-3.995-1.727-2.986-4.335-4.473-6.086-3.477a2.334 2.334 0 00-.907.97c-.504.945-1.197 1.701-2.029 2.18l-.844.491c-.366-.39-.744-.756-1.134-1.121a2.284 2.284 0 01-.441-2.823l.907-1.575a2.258 2.258 0 00-.819-3.074l-.895-.517a2.257 2.257 0 00-3.074.82l-.92 1.587a2.282 2.282 0 01-2.658 1.033 27.098 27.098 0 00-1.412-.378v-.97c0-.958.303-1.94.882-2.848.252-.403.378-.831.378-1.272C32.747 1.613 30.152.1 26.7.1c-3.452 0-6.048 1.512-6.048 3.528 0 .44.126.87.378 1.272.58.908.882 1.89.882 2.848v.97a27.1 27.1 0 00-1.524.416 2.252 2.252 0 01-2.659-1.033l-.907-1.563a2.247 2.247 0 00-3.074-.819l-.895.517a2.25 2.25 0 00-1.046 1.373 2.272 2.272 0 00.227 1.714l.92 1.588a2.28 2.28 0 01-.429 2.81c-.352.327-.705.68-1.045 1.033l-.845-.492c-.831-.479-1.524-1.235-2.028-2.18a2.426 2.426 0 00-.907-.97c-1.74-1.008-4.36.492-6.086 3.478C.844 15.914.39 17.338.34 18.585c-.063 1.424.403 2.495 1.298 3.011.378.227.819.328 1.298.303 1.07-.038 2.079.189 2.898.668l.831.478c-.15.504-.29 1.021-.403 1.538a2.29 2.29 0 01-2.217 1.789h-1.79A2.253 2.253 0 000 28.627v1.046a2.253 2.253 0 002.255 2.255h1.84c1.071 0 1.99.731 2.218 1.777.113.479.239.958.378 1.424l-.832.479c-.832.478-1.827.705-2.898.667a2.51 2.51 0 00-1.298.303c-.894.516-1.36 1.587-1.298 3.011.05 1.248.504 2.671 1.273 3.994 1.36 2.357 3.276 3.78 4.889 3.78.428 0 .831-.1 1.197-.315.378-.226.693-.541.907-.97.504-.945 1.197-1.7 2.029-2.18l.844-.491c.365.39.743.756 1.134 1.121a2.28 2.28 0 01.44 2.823l-.906 1.575a2.25 2.25 0 00-.227 1.713c.151.58.529 1.071 1.046 1.361l.894.517a2.244 2.244 0 001.702.227 2.26 2.26 0 001.373-1.046l.92-1.588a2.262 2.262 0 012.645-1.033c.467.151.945.277 1.424.39v.97c0 .958-.302 1.941-.882 2.848a2.378 2.378 0 00-.378 1.273c0 2.016 2.596 3.528 6.048 3.528 3.453 0 6.048-1.512 6.048-3.528 0-.441-.126-.87-.378-1.273-.567-.907-.882-1.89-.882-2.847v-.97a27.136 27.136 0 001.525-.416 2.25 2.25 0 012.658 1.033l.908 1.562a2.221 2.221 0 001.953 1.122c.39 0 .78-.101 1.121-.303l.895-.516a2.248 2.248 0 00.819-3.075l-.92-1.587a2.246 2.246 0 01.428-2.81c.366-.328.706-.68 1.046-1.033l.844.491c.832.479 1.525 1.235 2.029 2.18.227.428.529.743.907.97.365.214.769.315 1.197.315 1.6 0 3.515-1.424 4.889-3.78.768-1.323 1.222-2.747 1.272-3.994.063-1.424-.403-2.495-1.297-3.011a2.258 2.258 0 00-1.298-.303c-1.071.038-2.08-.189-2.898-.668l-.832-.478c.151-.504.29-1.021.403-1.538a2.238 2.238 0 012.193-1.814zm-7.75-1.31a.747.747 0 00-1.032.277c-.29.504-.378 1.109-.227 1.676s.516 1.045 1.033 1.335l5.43 3.138c1.072.617 2.357.92 3.718.869a.84.84 0 01.478.1c.378.215.58.82.542 1.639-.038.995-.428 2.192-1.07 3.301-1.299 2.243-3.189 3.402-4.02 2.923a.778.778 0 01-.328-.365c-.63-1.197-1.537-2.167-2.608-2.785l-1.235-.718a.555.555 0 00-.264-.151l-3.944-2.268a2.214 2.214 0 00-3.012.806.748.748 0 00.278 1.033.759.759 0 001.033-.277.698.698 0 01.945-.252l3.238 1.878c-.24.239-.479.478-.718.705a3.762 3.762 0 00-.706 4.675l.92 1.587c.1.177.126.366.076.555a.77.77 0 01-.34.453l-.895.517a.748.748 0 01-1.008-.265l-.907-1.562a3.767 3.767 0 00-4.423-1.714c-.353.114-.706.215-1.071.303v-3.755a.7.7 0 01.693-.693c.416 0 .756-.34.756-.756s-.34-.756-.756-.756c-1.21 0-2.205.995-2.205 2.205v6.275c0 1.247.378 2.507 1.109 3.654.1.164.151.315.151.466 0 .945-1.94 2.016-4.536 2.016-2.596 0-4.536-1.071-4.536-2.016 0-.151.05-.302.151-.466.731-1.147 1.109-2.407 1.109-3.654v-6.275c0-1.21-.995-2.205-2.205-2.205-.416 0-.756.34-.756.756s.34.756.756.756a.7.7 0 01.693.693v3.755a22.453 22.453 0 01-.97-.277 3.77 3.77 0 00-4.41 1.726l-.92 1.587a.726.726 0 01-1.008.265l-.895-.517a.727.727 0 01-.264-1.008l.907-1.575a3.797 3.797 0 00-.73-4.687 22.04 22.04 0 01-.807-.781l3.238-1.877a.695.695 0 01.945.252.75.75 0 001.033.277.759.759 0 00.277-1.033 2.201 2.201 0 00-3.011-.807l-5.43 3.138c-1.072.617-1.979 1.587-2.609 2.784a.936.936 0 01-.327.366c-.82.478-2.722-.668-4.02-2.924-.642-1.108-1.02-2.305-1.07-3.3-.039-.82.163-1.425.541-1.639a.845.845 0 01.479-.1c1.36.05 2.646-.24 3.717-.87l5.43-3.137c.517-.29.882-.769 1.034-1.336.15-.567.075-1.16-.227-1.676a.75.75 0 00-1.033-.277.749.749 0 00-.278 1.033.702.702 0 01.063.53.673.673 0 01-.327.415L8 34.348c-.088-.328-.176-.656-.252-.983a3.774 3.774 0 00-3.692-2.961H2.255a.745.745 0 01-.743-.744v-1.045c0-.404.328-.744.743-.744h1.802c1.764 0 3.327-1.247 3.705-2.973.075-.366.176-.731.277-1.084l3.25 1.877a.68.68 0 01.328.416.711.711 0 01-.063.53.75.75 0 00.277 1.033.756.756 0 001.034-.278c.29-.504.378-1.108.226-1.675a2.154 2.154 0 00-1.033-1.336l-5.43-3.137c-1.071-.618-2.357-.92-3.717-.87a.972.972 0 01-.48-.1c-.377-.215-.579-.82-.541-1.639.038-.995.428-2.192 1.071-3.3 1.298-2.256 3.188-3.403 4.02-2.924.138.076.239.202.327.365.63 1.197 1.537 2.168 2.608 2.785l5.43 3.137a2.203 2.203 0 003.012-.806.76.76 0 00-.277-1.033.75.75 0 00-1.033.277.696.696 0 01-.945.252l-3.238-1.877c.239-.24.478-.48.718-.706a3.763 3.763 0 00.718-4.675l-.92-1.587a.738.738 0 01.265-1.008l.894-.517a.75.75 0 011.008.265l.908 1.562a3.764 3.764 0 004.422 1.714c.353-.114.706-.214 1.071-.303v3.755a.7.7 0 01-.693.693c-.416 0-.756.34-.756.756s.34.756.756.756c1.21 0 2.205-.995 2.205-2.205V7.774c0-1.247-.378-2.507-1.109-3.654a.89.89 0 01-.15-.466c0-.945 1.94-2.016 4.535-2.016 2.596 0 4.536 1.071 4.536 2.016 0 .151-.05.302-.151.466-.73 1.147-1.109 2.407-1.109 3.654v6.275c0 1.21.996 2.205 2.205 2.205.416 0 .756-.34.756-.756s-.34-.756-.756-.756a.7.7 0 01-.693-.693v-3.755c.328.076.643.177.958.265a3.79 3.79 0 004.422-1.714l.92-1.587a.726.726 0 011.008-.265l.895.517c.176.1.29.264.34.453.05.19.025.39-.076.567l-.907 1.575c-.882 1.525-.58 3.503.731 4.687.277.252.542.517.806.782l-3.238 1.877a.696.696 0 01-.945-.252.75.75 0 00-1.033-.277.76.76 0 00-.277 1.033 2.205 2.205 0 003.011.806l5.43-3.137c1.072-.617 1.979-1.588 2.609-2.785.088-.163.189-.29.328-.365.819-.479 2.721.668 4.019 2.923.643 1.109 1.02 2.306 1.071 3.301.038.82-.164 1.412-.542 1.638a.835.835 0 01-.479.101c-1.36-.05-2.646.24-3.717.87l-5.43 3.137a2.2 2.2 0 00-1.033 1.336 2.17 2.17 0 00.226 1.675.756.756 0 001.034.278.75.75 0 00.277-1.034.703.703 0 01-.063-.529.681.681 0 01.327-.416l3.251-1.877c.088.328.177.655.252.983a3.773 3.773 0 003.692 2.96h1.84c.403 0 .743.328.743.744v1.046a.745.745 0 01-.743.743h-1.815c-1.764 0-3.326 1.248-3.692 2.974-.075.365-.176.73-.277 1.084l-3.25-1.878a.677.677 0 01-.328-.416.71.71 0 01.063-.529c.164-.403.038-.87-.315-1.083z"/><path fill="#34A9FF" d="M26.712 25.326a3.791 3.791 0 00-3.78 3.78 3.791 3.791 0 003.78 3.78 3.791 3.791 0 003.78-3.78 3.791 3.791 0 00-3.78-3.78zm0 6.048a2.275 2.275 0 01-2.268-2.268 2.275 2.275 0 012.268-2.268 2.275 2.275 0 012.268 2.268 2.275 2.275 0 01-2.268 2.268z"/></g></svg>