<svg xmlns="http://www.w3.org/2000/svg" viewBox="0 0 34 42"><defs><linearGradient id="a" x1="0%" x2="100%" y1="50%" y2="50%"><stop offset="0%" stop-color="#00F2FE"/><stop offset="2.08%" stop-color="#03EFFE"/><stop offset="29.31%" stop-color="#24D2FE"/><stop offset="55.38%" stop-color="#3CBDFE"/><stop offset="79.56%" stop-color="#4AB0FE"/><stop offset="100%" stop-color="#4FACFE"/></linearGradient></defs><path fill="url(#a)" stroke="url(#a)" stroke-width=".7" d="M31.262 3.311H30.8C30.492 1.463 28.952 0 26.95 0H5.39C3.388 0 1.848 1.463 1.54 3.311h-.462a.772.772 0 00-.77.77v10.241c0 .462.385.77.77.77h.462c.308 1.848 1.925 3.311 3.85 3.311h.154V38.5h-.308a.772.772 0 00-.77.77c0 .462.385.77.77.77h21.868c.462 0 .77-.385.77-.77a.772.772 0 00-.77-.77h-.308V18.403h.154c1.925 0 3.542-1.463 3.85-3.311h.462c.462 0 .77-.385.77-.77V4.081c.077-.462-.308-.77-.77-.77zM1.848 13.552V4.851h28.644v8.701H1.848zM5.39 1.54h21.56c1.078 0 2.002.77 2.31 1.771H3.08C3.388 2.31 4.312 1.54 5.39 1.54zm1.694 16.863h4.158a4.707 4.707 0 002.079 3.465c-2.079 1.078-3.542 3.234-3.542 5.698V38.5H7.084V18.403h0zm9.086 2.849s0 0 0 0 0 0 0 0c-1.694 0-3.08-1.232-3.311-2.772h6.622c-.231 1.54-1.617 2.772-3.311 2.772zM21.021 38.5h-9.702V27.643a4.83 4.83 0 014.851-4.851s0 0 0 0 0 0 0 0a4.83 4.83 0 014.851 4.851V38.5zm4.235 0h-2.695V27.643a6.3 6.3 0 00-3.542-5.698 4.707 4.707 0 002.079-3.465h4.158V38.5zm1.694-21.637H5.39c-1.078 0-2.002-.77-2.31-1.771h26.18c-.308 1.001-1.232 1.771-2.31 1.771z" transform="translate(1 1)"/></svg>