<svg xmlns="http://www.w3.org/2000/svg" width="48" height="48" viewBox="0 0 48 48">
    <g fill="none" fill-rule="evenodd" stroke-linecap="round" stroke-linejoin="round">
        <g stroke-width="2">
            <g>
                <path stroke="#FFF" d="M0 46c0-1.5.3-4.6 1-5.8.9-1.5 2.8-3 4.1-3.6l5-2.5" transform="translate(-35 -38) translate(36 39)"/>
                <path stroke="#FFF" d="M20 46L13.4 30.5 10 34 10 46M46 46c0-1.5-.3-4.6-1-5.8-.9-1.5-2.8-3-4.1-3.6l-5-2.5-3.3-3.6-1.1 2.5" transform="translate(-35 -38) translate(36 39)"/>
                <path stroke="#10CCCB" d="M25 38H35V46H25z" transform="translate(-35 -38) translate(36 39)"/>
                <path stroke="#FFF" d="M30.1 3.5c2.1.9 4.4 3.2 4.4 5.9 0 .3 0 .7-.1 1 0 .4-.2 1.9-.5 3.5 0 0 0 0 0 0 1 .1 1.8.9 1.9 1.8 0 0 0 0 0 0s0 0 0 0v.5s0 0 0 0c0 .6-.2 1.6-.3 2.1-.1.3-.2.8-.3 1.3-.2.5-.3 1-.4 1.2-.4.9-1.4 1.3-2.4 1.1-.2.7-.4 1.3-.4 1.3h0c-.6 2-1.8 3.6-3.5 4.8-1.7 1.4-3.7 2.3-5.6 2.3-1.8 0-4-1-5.6-2.3-1.7-1.2-2.9-2.9-3.5-4.8h0s-.1-.5-.4-1.3c-.2 0-.4.1-.5.1-.8 0-1.5-.4-1.9-1.1-.2-.5-.7-2-.8-2.5-.1-.5-.3-1.4-.3-2.1 0 0 0 0 0 0v-.1-.4s0 0 0 0 0 0 0 0c.1-.9.9-1.7 1.9-1.8 0 0 0 0 0 0-.2-1.6-.4-3.1-.5-3.5 0-.3-.1-.7-.1-1 0-3.7 2.3-6.9 5.6-8.3C18.3.4 20.5 0 22.9 0H30" transform="translate(-35 -38) translate(36 39)"/>
                <path stroke="#FFF" d="M29.8 10c-.4-1.2-1.5-2-2.8-2h-6c-1.3 0-2.4-.8-2.8-2" transform="translate(-35 -38) translate(36 39)"/>
                <path stroke="#10CCCB" d="M30 36L30 39" transform="translate(-35 -38) translate(36 39)"/>
            </g>
        </g>
    </g>
</svg>
