<svg xmlns="http://www.w3.org/2000/svg" width="35" height="35" viewBox="0 0 35 35">
    <defs>
        <filter id="x8j2im7hwa" color-interpolation-filters="auto">
            <feColorMatrix in="SourceGraphic" values="0 0 0 0 1.000000 0 0 0 0 1.000000 0 0 0 0 1.000000 0 0 0 1.000000 0"/>
        </filter>
    </defs>
    <g fill="none" fill-rule="evenodd">
        <g>
            <g transform="translate(-197.000000, -121.000000) translate(197.000000, 121.000000)">
                <circle cx="17.5" cy="17.5" r="17.5" fill="#8577D1" opacity=".2"/>
                <g filter="url(#x8j2im7hwa)">
                    <g>
                        <g>
                            <path d="M0 0H22V22H0z" transform="translate(7.000000, 6.000000)"/>
                        </g>
                        <g fill="#565D64" fill-rule="nonzero">
                            <path d="M6.576 7.946c.798.382 1.565.33 2.47-.351 1.067-.793 1.838-2.205 1.838-3.685C10.884 1.547 9.381 0 7.525 0 5.671 0 4.167 1.547 4.167 3.91c0 1.876 1.203 3.458 2.41 4.036zm.204.861l3.587 7.428s.401-.002.855-.002c.84 0 1.35-.882 1.15-1.632-.186-.697-1.115-1.302-2.3-1.3h-.002L7.936 8.882c-.303.051-.648.072-1.156-.075zm3.26-1.132c-.21.217-.434.414-.668.582l2.28 4.643c.866.317 1.387.893 1.52 1.7.137.824-.297 2.361-1.8 2.361H2.681c-.716-.002-1.453-.631-1.453-1.64 0-.332.078-.711.28-1.135.702-1.495 3.505-6.506 3.505-6.506-.34.073-.836.195-1.227.322C.896 8.948.063 11.157 0 13.554c0 .748.102 1.534.28 2.319.239 1.2 1.225 2.124 2.401 2.127 9.438 0 8.831-.001 8.86-.001 1.872 0 3.002-1.01 3.23-1.961.197-.819.229-1.732.229-2.484-.101-3.651-1.856-5.14-4.96-5.879z" transform="translate(7.000000, 6.000000) translate(3.000000, 2.000000)"/>
                        </g>
                    </g>
                </g>
            </g>
        </g>
    </g>
</svg>
