<svg xmlns="http://www.w3.org/2000/svg" viewBox="0 0 41 27"><g fill="#7B92AB"><path d="M12.532 13.026H7.69a1.148 1.148 0 010-2.296h4.84a1.147 1.147 0 01.001 2.296"/><path d="M10.112 15.446a1.148 1.148 0 01-1.148-1.147V9.46a1.147 1.147 0 112.294 0v4.84c0 .633-.513 1.147-1.146 1.147"/><path d="M36.373 24.036c-.316 0-.83-.04-1.132-.524a1.194 1.194 0 01-.15-.309l-.241-.543.334-.36c.244-.44.754-.673 1.254-.56l1.181-.013a.458.458 0 00.45-.458v-4.917a.46.46 0 00-.088-.27l-6.97-9.566-26.445-.048a.114.114 0 00-.114.114v16.209a1.148 1.148 0 01-2.296 0V6.582a2.412 2.412 0 012.41-2.408H30.92c.767 0 1.495.37 1.947.99l6.97 9.568a2.73 2.73 0 01.527 1.62v4.917a2.758 2.758 0 01-2.725 2.753l-1.169.013-.096.001"/><path d="M4.974 23.937H1.147a1.146 1.146 0 110-2.294h3.827a1.147 1.147 0 110 2.294m19.508 0h-8.417a1.147 1.147 0 110-2.294h8.417a1.147 1.147 0 110 2.294m-13.918 2.574a3.118 3.118 0 01-3.114-3.114 3.117 3.117 0 013.114-3.113c1.717 0 3.114 1.396 3.114 3.113s-1.397 3.114-3.114 3.114m0-3.933a.821.821 0 00-.82.82.82.82 0 001.64-.001.822.822 0 00-.82-.819m19.508 3.933a3.117 3.117 0 01-3.114-3.114 3.116 3.116 0 013.114-3.113c1.717 0 3.113 1.396 3.113 3.113s-1.396 3.114-3.113 3.114m0-3.933a.821.821 0 00-.82.82.82.82 0 001.64-.001.822.822 0 00-.82-.819m7.794-5.888H29.38a2.907 2.907 0 01-2.903-2.903v-3.378c0-1.6 1.303-2.903 2.903-2.903h4.005a1.148 1.148 0 010 2.295H29.38a.608.608 0 00-.607.608v3.378c0 .336.272.61.607.61h8.486a1.147 1.147 0 010 2.294M28.06 3.036h-3.166V1.069c0-.59.479-1.069 1.068-1.069h1.03c.59 0 1.069.479 1.069 1.069v1.967z"/></g></svg>