<svg xmlns="http://www.w3.org/2000/svg" xmlns:xlink="http://www.w3.org/1999/xlink" viewBox="0 0 24 24"><defs/><defs><filter id="a"><feColorMatrix in="SourceGraphic" values="0 0 0 0 0.062745 0 0 0 0 0.800000 0 0 0 0 0.796078 0 0 0 0.602191 0"/></filter><path id="b" d="M11 5c.552 0 1 .448 1 1s-.448 1-1 1H5c-.552 0-1 .448-1 1v11c0 .552.448 1 1 1h11c.552 0 1-.448 1-1v-6c0-.552.448-1 1-1s1 .448 1 1v6c0 1.657-1.343 3-3 3H5c-1.657 0-3-1.343-3-3V8c0-1.657 1.343-3 3-3zm10-3h.02c.023 0 .046.002.07.004l.059.007.052.01c.022.004.043.009.065.015l.046.014.06.021.051.023.061.03.037.022c.025.016.05.032.074.05.04.03.077.061.112.097l-.09-.08c.063.05.12.107.17.17l.017.022c.018.024.034.049.05.074l.021.037c.011.02.022.04.031.06l.023.053.021.06.014.045.016.065.009.053c.007.048.011.097.011.148l-.004-.086.003.054L22 3v6c0 .552-.448 1-1 1s-1-.448-1-1V5.414l-9.293 9.293c-.36.36-.928.388-1.32.083l-.094-.083c-.39-.39-.39-1.024 0-1.414L18.584 4H15c-.513 0-.936-.386-.993-.883L14 3c0-.552.448-1 1-1z"/></defs><g fill="none" fill-rule="evenodd" filter="url(#a)" opacity=".525" transform="translate(-1397 -117)"><g transform="matrix(-1 0 0 1 1421 117)"><mask id="c" fill="#fff"><use xlink:href="#b"/></mask><use fill="#000" fill-rule="nonzero" xlink:href="#b"/><g fill="#000" mask="url(#c)"><path d="M0 0h24v24H0z"/></g></g></g></svg>