<svg xmlns="http://www.w3.org/2000/svg" viewBox="0 0 25 25"><path fill="#DAE8FC" fill-rule="evenodd" d="M0 12.5C0 5.6 5.6 0 12.5 0S25 5.6 25 12.5 19.4 25 12.5 25 0 19.4 0 12.5zm19.838 8.197a18.123 18.123 0 00-3.13-.82c-.977-.184-1.782-1.32-2.22-2.428.141-.078.284-.161.429-.25 1.257 1.22 3.09 1.162 5.396.04-1.465-.396-2.22-1.538-2.418-3.27.005-.009.01-.017.013-.026.248-1.124.75-3.83.39-6.144-.42-2.017-1.923-3.56-3.666-2.254-.6-.95-1.455-1.097-2.133-1.097-2.963 0-5.138 1.215-5.558 2.876-.421 1.069-.721 4.155.15 6.619.006.01.01.022.015.031-.19 1.744-.946 2.902-2.418 3.324 2.291 1.068 4.114 1.099 5.372-.114.153.095.302.184.451.265-.438 1.107-1.243 2.244-2.218 2.428-1.07.181-2.2.475-3.132.82a11.134 11.134 0 007.339 2.74c2.811 0 5.381-1.034 7.338-2.74z" opacity=".375"/></svg>