<svg xmlns="http://www.w3.org/2000/svg" viewBox="0 0 30 22"><g fill="#DAE8FC" opacity=".197"><circle cx="10.164" cy="5.082" r="4.356"/><path d="M22.052 14.52h-1.996c-3.93 0-6.988 2.098-6.988 3.993v2.269c0 .551.447.998.998.998h13.976a.998.998 0 00.998-.998v-2.269c0-1.895-2.995-3.993-6.988-3.993zm-6.532-2.129a11.154 11.154 0 00-4.085-.775H8.893C3.891 11.616 0 15.012 0 17.424v3.085a1.27 1.27 0 001.27 1.271h9.04a3.826 3.826 0 01-.146-.998v-2.269c0-2.663 2.179-4.973 5.355-6.122z"/><circle cx="21.054" cy="9.075" r="3.993"/></g></svg>