<svg xmlns="http://www.w3.org/2000/svg" width="32" height="36" viewBox="0 0 32 36">
    <g fill="none" fill-rule="evenodd">
        <g>
            <g>
                <g>
                    <path fill="#FFF" fill-rule="nonzero" d="M1.524 36C.686 36 0 35.312 0 34.471c0-.84.686-1.528 1.524-1.528H3.44C1.433 26.596 5.41 22.875 8.152 20.33l.326-.302.33-.307c.838-.788 1.632-1.593 1.701-2.143l.005.077c0-.688-1.295-1.834-2.362-2.828-2.536-2.407-6.369-5.867-4.89-11.77H1.524C.686 3.057 0 2.368 0 1.527 0 .689.686 0 1.524 0h28.952C31.314 0 32 .688 32 1.529c0 .84-.686 1.528-1.524 1.528l-1.738.001c1.478 5.904-2.361 9.363-4.967 11.77-1.047.976-2.314 2.098-2.36 2.79l-.001-.038c0 .688 1.295 1.834 2.361 2.828 2.735 2.537 6.695 6.181 4.73 12.534h1.975c.838 0 1.524.689 1.524 1.53 0 .84-.686 1.528-1.524 1.528H1.524zM25.616 3.057H6.384c-1.443 4.281.754 6.76 3.188 9.04l.318.296.32.295c1.626 1.483 3.108 2.894 3.335 4.721.005.04.01.082.013.124l.004.047v.076c-.076 1.91-1.676 3.363-3.352 4.892-.105.096-.21.193-.313.29l-.312.291c-2.583 2.43-4.902 5.069-2.923 9.813h18.664c2.073-5.124-.8-7.79-3.536-10.318-1.616-1.474-3.161-2.948-3.338-4.765-.01-.066-.014-.134-.014-.203 0-.075.005-.148.014-.22l-.014.22c.076-1.987 1.676-3.44 3.352-4.968l.32-.295.318-.296c2.434-2.28 4.631-4.759 3.188-9.04z" transform="translate(-38.000000, -320.000000) translate(38.000000, 320.000000)"/>
                </g>
                <path fill="#EC3E60" fill-rule="nonzero" d="M18.335 22l.001.002.079.006c.392.054.64.397.64.784 0 .246.359.61.775.979l.254.221.253.217c1.655 1.418 4.138 3.525 2.07 7.433-.125.23-.415.383-.704.383l-.116-.01-.006.01L14.197 32l-3.078.025-.075-.156c-.043.03-.09.056-.14.08-.125.038-.249.076-.373.076-.29 0-.58-.153-.745-.421-2.069-3.87.414-6.015 2.07-7.433l.125-.108.255-.22c.468-.406.902-.819.902-1.09.041-.421.414-.728.869-.728.07.006.139.02.203.04l.021-.04 4.07-.025h.034z" transform="translate(-38.000000, -320.000000) translate(38.000000, 320.000000)"/>
            </g>
        </g>
    </g>
</svg>
