<svg width="35" height="35" viewBox="0 0 35 35" xmlns="http://www.w3.org/2000/svg">
    <g fill="none" fill-rule="evenodd">
        <circle fill="#DAE8FC" opacity=".2" cx="17.5" cy="17.5" r="17.5"/>
        <path d="M23 10a1 1 0 1 1 0 2v.343a5.001 5.001 0 0 1-1.466 3.535L19.416 18l2.118 2.122A5 5 0 0 1 23 23.656V24a.999.999 0 1 1 0 2H13a1 1 0 1 1 0-2v-.344a5 5 0 0 1 1.464-3.534L16.584 18l-2.12-2.122A5 5 0 0 1 13 12.343V12a1 1 0 0 1 0-2h10zm-2.878 11.534L18 19.416l-2.122 2.118A3.004 3.004 0 0 0 15 23.656V24h6v-.344c0-.793-.316-1.56-.878-2.122z" fill="#FFF" fill-rule="nonzero"/>
    </g>
</svg>
