<svg xmlns="http://www.w3.org/2000/svg" viewBox="0 0 35 35"><g fill="none" fill-rule="evenodd"><circle cx="17.5" cy="17.5" r="17.5" fill="#DAE8FC" opacity=".2"/><path fill="#FFF" fill-rule="nonzero" d="M9.692 12.087c.355 0 .648.269.688.614l.005.082v2.782h1.384a3.466 3.466 0 013.39 2.783h10.456v-1.391a.693.693 0 011.38-.082l.005.082v8.347c0 .385-.31.696-.692.696a.694.694 0 01-.688-.615l-.005-.08v-2.088h-15.23v2.087a.693.693 0 01-1.38.081L9 25.305V12.782c0-.385.31-.696.692-.696zM20.77 10c.355 0 .648.269.688.615l.005.08v.696h.692c.382 0 .692.312.692.696 0 .357-.267.65-.611.69l-.081.006h-.692v.695c0 .384-.31.696-.693.696a.693.693 0 01-.687-.615l-.005-.08v-.696h-.692a.696.696 0 01-.081-1.387l.08-.005h.693v-.695c0-.385.31-.696.692-.696z"/></g></svg>