<svg xmlns="http://www.w3.org/2000/svg" viewBox="0 0 32 32"><g fill="none" fill-rule="evenodd"><circle cx="16" cy="16" r="16" fill="#DAE8FC" opacity=".375"/><path fill="#FFF" fill-rule="nonzero" d="M12.141 14.32l2.559 4.477.054.083a.8.8 0 001.216.076l.064-.076 1.847-2.462.947.948.08.07c.11.084.242.139.381.157l.105.007h4.114l-6.748 6.748a.802.802 0 01-1.056.067l-.076-.067-6.798-6.799-.135-.14a5.579 5.579 0 01-.957-1.41l2.856.001.1-.006a.803.803 0 00.506-.271l.06-.08.881-1.322zm4.216-5.295a5.601 5.601 0 016.882.328l.17.153.139.134a5.602 5.602 0 011.1 6.36h-4.922l-1.366-1.366-.072-.063a.8.8 0 00-1.067.07l-.067.079-1.67 2.226-2.595-4.543-.057-.086a.801.801 0 00-1.241-.043l-.063.082-1.363 2.044H7.257a5.602 5.602 0 018.754-5.389l.183.134.163-.12z"/></g></svg>