<svg xmlns="http://www.w3.org/2000/svg" viewBox="0 0 32 32"><g fill="none" fill-rule="evenodd"><circle cx="16" cy="16" r="16" fill="#DAE8FC" opacity=".375"/><path fill="#FFF" fill-rule="nonzero" d="M16.51 8.172l.07.062 5.884 5.883a.802.802 0 01-1.062 1.194l-.07-.062-.17-.17-8.07 8.07a3.91 3.91 0 01-3.386 1.1 3.92 3.92 0 01-2.293-6.502l.135-.141 8.07-8.07-.169-.17a.802.802 0 011.062-1.194zm5.861 9.292a.8.8 0 011.232 0c1.192 1.438 1.784 2.425 1.784 3.177 0 1.214-1.103 2.133-2.4 2.133-1.296 0-2.4-.92-2.4-2.133 0-.752.592-1.739 1.784-3.177zm-5.621-6.798l-2.646 2.647c.337.33.827.524 1.5.583l.19.012.422.013c1.174.054 2.115.407 2.778 1.063l1.036-1.037-3.28-3.28z"/></g></svg>