<svg xmlns="http://www.w3.org/2000/svg" viewBox="0 0 36 35"><defs/><g fill="none" fill-rule="evenodd"><ellipse cx="18" cy="17.5" fill="#ECDAFC" opacity=".2" rx="18" ry="17.5"/><path fill="#FFF" fill-rule="nonzero" d="M26.632 12.95c.068.816-.005 1.592-.3 2.173-.382.75-1.097 1.098-2.014.982-.947-.12-1.527-.088-1.826.1-.24.152-.35.436-.539.966-.146.412-.328.923-.663 1.494-.645 1.098-1.635 1.486-2.511 1.554.531.12 1.191.098 1.842-.196 1.305-.589 2.018 1.55 2.431 1.89.413.34.362-.076 1.08.072.718.148-.578 1.629-1.358 1.17-.781-.457-1.064-1.32-1.747-1.217-.684.103-.299.705-1.212 1.907s-4.692 1.707-5.988-1.508c-1.14-2.825 1.062-4.461.365-5.508-.256-.385-1.397-1.235-1.262-2.524.152-1.448 1.22-3.669 4.031-3.328 2.81.342 3.157 2.456 2.804 3.798-.108.414-.318.569-.371.86.484 1.907-1.09 1.517-1.76 1.873-.703.375-.18.742.524.861.704.12-.163-.367.515-.737.552-.301.962.942.803 1.547.388-.161.77-.451 1.065-.954.294-.5.453-.948.594-1.344.39-1.098.725-2.05 2.453-2.064 0 0 .932-.028 1.226-.666.218-.471-.075-2.7-.917-4.228C22.243 8.714 20.205 8 18 8 12.477 8 8 12.477 8 18s4.477 10 10 10 10-4.477 10-10c0-1.842-.499-3.568-1.368-5.05z"/></g></svg>