<svg xmlns="http://www.w3.org/2000/svg" viewBox="0 0 32 32"><g fill="none"><circle cx="16" cy="16" r="16" fill="#EC3E60"/><path fill="#FFF" d="M20.5 20.222c1.065 0 1.929.846 1.929 1.89 0 1.005-.803 1.827-1.816 1.885L20.5 24h-9c-1.065 0-1.929-.846-1.929-1.889 0-1.006.803-1.828 1.816-1.886l.113-.003h9zM16 11.407c2.433 0 4.416 1.892 4.497 4.256l.003.152v3.148h-9v-3.148c0-2.434 2.015-4.408 4.5-4.408zm8.996 2.652a.632.632 0 01-.491.685l-.074.013-1.929.219a.64.64 0 01-.712-.554.63.63 0 01.49-.685l.075-.012 1.928-.219a.64.64 0 01.713.553zm-17.354-.557l.075.004 1.928.219c.353.04.606.352.565.697a.639.639 0 01-.637.558l-.075-.004-1.929-.22a.632.632 0 01-.565-.697.64.64 0 01.638-.557zM22.24 9.073a.62.62 0 01.054.831l-.054.06-1.285 1.259a.653.653 0 01-.91 0 .62.62 0 01-.053-.831l.053-.06 1.286-1.259a.653.653 0 01.91 0zm-11.632-.052l.06.052 1.287 1.26c.25.245.25.644 0 .89a.654.654 0 01-.849.052l-.06-.052-1.286-1.26a.62.62 0 010-.89.652.652 0 01.848-.052zM16 7a.64.64 0 01.639.556l.004.074v1.889c0 .347-.288.63-.643.63a.64.64 0 01-.639-.557l-.004-.073v-1.89c0-.347.288-.629.643-.629z"/></g></svg>