<svg xmlns="http://www.w3.org/2000/svg" viewBox="0 0 35 35"><g fill="none" fill-rule="evenodd"><circle cx="17.5" cy="17.5" r="17.5" fill="#DAE8FC" opacity=".2"/><path fill="#FFF" fill-rule="nonzero" d="M19.078 9.26C23.02 14.015 25 17.456 25 19.726 25 23.194 22.096 26 18.52 26c-3.576 0-6.48-2.806-6.48-6.274 0-.285.031-.588.093-.91l1.766 2.775a2.164 2.164 0 001.79.867 2.155 2.155 0 001.585-.735l.094-.115.694-.91a2.18 2.18 0 001.02.338l.158.006 1.589-.005a2.128 2.128 0 001.526-.791c.289-.36.486-.841.47-1.575a2.108 2.108 0 00-.71-1.342 2.173 2.173 0 00-1.271-.531l-.164-.006h-.547l-.917-.896a2.177 2.177 0 00-1.699-.503 2.162 2.162 0 00-1.35.716l-.095.116-.271.356-1.526-2.395c.936-1.452 2.165-3.09 3.687-4.926a.728.728 0 011.116 0zm-6.481 4.957l.054.074 3.043 4.791 1.53-2.007a.726.726 0 011.02-.132l.065.056 1.23 1.21h1.141c.37 0 .674.273.715.625l.005.083a.712.712 0 01-.636.703l-.084.005h-1.44a.728.728 0 01-.438-.146l-.071-.061-.853-.84-1.662 2.18a.727.727 0 01-1.132.025l-.055-.074-3.05-4.803-1.584 2.026a.717.717 0 01-.476.27l-.094.006H7.72A.714.714 0 017 17.5c0-.363.278-.663.636-.704l.084-.004h1.75l2-2.557a.727.727 0 011.127-.018z"/></g></svg>