<svg xmlns="http://www.w3.org/2000/svg" viewBox="0 0 35 35"><g fill="none" fill-rule="evenodd"><circle cx="17.5" cy="17.5" r="17.5" fill="#DAE8FC" opacity=".2"/><path fill="#FFF" fill-rule="nonzero" d="M21.9 9a2.09 2.09 0 012.096 1.955l.004.122v13.846c0 1.106-.874 2.01-1.977 2.073L21.9 27h-9.8a2.09 2.09 0 01-2.096-1.955L10 24.923V11.077c0-1.106.874-2.01 1.977-2.073L12.1 9h9.8zm-1.663 10.536a.705.705 0 00-.924.044l-.06.064-2.399 2.966-1.566-1.032-.07-.041a.704.704 0 00-.9.233.686.686 0 00.128.911l.066.049 2.1 1.384.071.042a.707.707 0 00.803-.12l.06-.065 2.8-3.462.051-.07a.688.688 0 00-.16-.903zm.263-2.92h-7l-.082.004a.695.695 0 00-.618.688c0 .355.27.647.618.687L13.5 18h7l.082-.005a.694.694 0 00.618-.687.695.695 0 00-.618-.688l-.082-.005zm0-2.078h-7l-.082.005a.695.695 0 00-.618.688c0 .355.27.647.618.687l.082.005h7l.082-.005a.694.694 0 00.618-.687.695.695 0 00-.618-.688l-.082-.005zm0-2.076h-7l-.082.004a.695.695 0 00-.618.688c0 .355.27.648.618.687l.082.005h7l.082-.005a.694.694 0 00.618-.687.695.695 0 00-.618-.688l-.082-.004z"/></g></svg>