<svg xmlns="http://www.w3.org/2000/svg" viewBox="0 0 32 32"><g fill="none" fill-rule="evenodd"><circle cx="16" cy="16" r="16" fill="#DAE8FC" opacity=".375"/><path fill="#FFF" fill-rule="nonzero" d="M10.491 15.652a2.983 2.983 0 014.974 1.281l.046.18.008.043.042.008c.429.095.835.285 1.188.56l.148.124.125.119A2.981 2.981 0 0113.7 22.8l-.148-.071-.104-.057-3.368 3.369a.8.8 0 01-.98.118l-.082-.056-.07-.062-2.314-2.315a.8.8 0 01-.066-1.056l.066-.075 3.369-3.368-.057-.105a2.984 2.984 0 01.32-3.218l.116-.137.11-.115zm12.104-9.018a.8.8 0 01.98-.118l.082.056.07.062 2.314 2.314a.8.8 0 01.066 1.056l-.066.076-3.37 3.37.058.102a2.985 2.985 0 01-.32 3.219l-.116.136-.11.115a2.98 2.98 0 01-4.973-1.28l-.046-.18-.008-.043-.042-.008a2.982 2.982 0 01-1.188-.56l-.148-.124-.126-.119a2.983 2.983 0 013.323-4.833l.147.071.104.058 3.369-3.37z"/></g></svg>