<svg xmlns="http://www.w3.org/2000/svg" viewBox="0 0 35 35"><g fill="none" fill-rule="evenodd"><circle cx="17.5" cy="17.5" r="17.5" fill="#DAE8FC" opacity=".2"/><g fill="#FFF" fill-rule="nonzero" transform="translate(11 8)"><path d="M11.72 8.66l-1-2c-.24-.48-.66-.86-1.16-1.06-2.2-.86-2.48-.84-2.7-.82l-1.5.1c-.46.02-.78.14-2.32 2.4-.06.08-.14.14-.26.16l-1.84.28c-.5.08-.84.54-.76 1.04.08.5.54.84 1.04.76l1.84-.28c.6-.1 1.14-.42 1.48-.92.08-.12.16-.22.22-.32l1.18 3.74-1.64 1.64c-.24.24-.44.56-.56.88l-1.26 3.68c-.18.54.1 1.14.64 1.32a1.033 1.033 0 001.32-.64l1.26-3.68c.02-.04.04-.06.06-.1l.94-.94 1.74 4.72a1.054 1.054 0 001.34.62c.54-.2.82-.8.62-1.34l-2.04-5.64.36-.36c.42-.42.58-1 .46-1.56l-.74-3.22c.14.06.28.12.46.18.08.04.16.1.2.18l1 2a.907.907 0 001.22.4.92.92 0 00.4-1.22z"/><circle cx="5.82" cy="2.321" r="2.02" transform="rotate(-6.212 5.82 2.32)"/></g></g></svg>