<svg xmlns="http://www.w3.org/2000/svg" viewBox="0 0 35 35"><g fill="none" fill-rule="evenodd"><circle cx="17.5" cy="17.5" r="17.5" fill="#DAE8FC" opacity=".2"/><path d="M23.63 21.254v-4.07h-1.497v1.344h-9.677v-1.344h-1.498v4.032a2.287 2.287 0 00-1.536 2.15c0 1.268 1.037 2.266 2.266 2.266s2.266-1.037 2.266-2.266c0-.998-.653-1.843-1.536-2.15v-1.19h9.638v1.19a2.287 2.287 0 00-1.536 2.15 2.27 2.27 0 002.266 2.266 2.27 2.27 0 002.265-2.266c.115-.96-.537-1.804-1.42-2.112zm3.341-8.947c-.307-.269-.806-.192-1.075.115l-1.46 1.767H22.44c-.038-1.114-.845-2.035-1.882-2.035h-6.643c-.998 0-1.843.921-1.881 2.035H9.96a.77.77 0 00-.768.768.77.77 0 00.768.768h14.822c.23 0 .423-.115.576-.269l1.69-2.035c.269-.346.23-.845-.077-1.114z" fill="#FFF" fill-rule="nonzero"/></g></svg>