<svg xmlns="http://www.w3.org/2000/svg" viewBox="0 0 35 35"><defs/><g fill="none" fill-rule="evenodd"><circle cx="17.5" cy="17.5" r="17.5" fill="#8577D1" opacity=".2"/><path fill="#FFF" fill-rule="nonzero" d="M11.245 27.505c-1.12.002-2.2-.418-3.026-1.177-.275-.253-.293-.682-.04-.958l5.167-5.638c.254-.275.683-.293.959-.04.877.807 1.398 1.93 1.448 3.12.05 1.191-.376 2.353-1.183 3.23-.854.934-2.06 1.464-3.325 1.463zm15.116-.143h-3.61c-.376 0-.68-.304-.68-.68 0-.376.304-.68.68-.68h3.61c.376 0 .68.304.68.68 0 .376-.304.68-.68.68zm-5.922 0H16.16c-.375 0-.68-.304-.68-.68 0-.376.305-.68.68-.68h4.278c.375 0 .68.304.68.68 0 .376-.305.68-.68.68zm5.548-17.68c-.483-.461-1.134-.707-1.802-.68-.665.03-1.291.324-1.74.816l-8.325 9.058c.255.036.493.15.68.326.823.745 1.376 1.743 1.571 2.836l9.581-8.664c.065-.057.126-.119.184-.183.925-1.012.858-2.58-.15-3.509z"/></g></svg>