<svg xmlns="http://www.w3.org/2000/svg" viewBox="0 0 35 35"><g fill="none" fill-rule="evenodd"><circle cx="17.5" cy="17.5" r="17.5" fill="#DAE8FC" opacity=".2"/><g fill="#FFF" fill-rule="nonzero"><path d="M13.54 22.727c-.32-.24-.686-.36-1.051-.36-.366 0-.777.12-1.051.36-.275.2-.457.481-.594.801-.092.2-.137.4-.137.641 0 .961.822 1.762 1.782 1.762.96 0 1.782-.8 1.782-1.762 0-.24-.046-.44-.138-.64-.137-.361-.365-.601-.594-.802zm9.8 0c-.32-.24-.685-.36-1.05-.36-.412 0-.777.12-1.051.36-.275.2-.457.481-.594.801-.092.2-.137.4-.137.641 0 .961.822 1.762 1.782 1.762 1.005 0 1.782-.8 1.782-1.762 0-.24-.046-.44-.138-.64a1.654 1.654 0 00-.594-.802z"/><path d="M25.73 11.517h-8.472v-.795c0-.397-.374-.722-.83-.722-.458 0-.831.325-.831.722v.795h-1.495c-.291 0-.582.145-.706.361l-2.326 3.793-2.326.867C7.706 16.935 7 17.983 7 19.138v1.446c0 1.336.872 2.42 2.076 2.709a1.99 1.99 0 01.25-.687c.124-.252.29-.47.498-.686.581-.65 1.454-1.047 2.45-1.047.997 0 1.87.397 2.45 1.047.208.217.374.434.499.723.124.216.208.47.25.722h3.654c.041-.253.124-.47.249-.722.124-.253.29-.506.498-.723.582-.65 1.454-1.047 2.45-1.047.956 0 1.87.397 2.45 1.047.208.217.374.434.5.723.124.216.207.47.248.722h.25c.456 0 .83-.325.83-.722V12.167c-.042-.325-.415-.65-.872-.65zm-3.541 5.416h-1.38v1.245c0 .402-.401.732-.847.732-.49 0-.89-.33-.89-.696V16.97h-1.38c-.49 0-.891-.33-.891-.695 0-.403.4-.733.846-.733h1.38v-1.246c0-.402.401-.732.846-.732.49 0 .89.33.89.696v1.245h1.381c.49 0 .89.33.89.695.045.403-.356.733-.845.733z"/></g></g></svg>