<svg xmlns="http://www.w3.org/2000/svg" width="35" height="35" viewBox="0 0 35 35">
    <g fill="none" fill-rule="evenodd">
        <g>
            <g transform="translate(-1337 -151) translate(1337 151)">
                <circle cx="17.5" cy="17.5" r="17.5" fill="#8577D1" opacity=".2"/>
                <g fill="#FFF" fill-rule="nonzero">
                    <path d="M14.63 9.254v-4.07h-1.497v1.344H3.456V5.184H1.958v4.032c-.883.307-1.536 1.152-1.536 2.15 0 1.268 1.037 2.266 2.266 2.266s2.266-1.037 2.266-2.266c0-.998-.653-1.843-1.536-2.15v-1.19h9.638v1.19c-.883.307-1.536 1.152-1.536 2.15 0 1.268 1.037 2.266 2.266 2.266 1.267 0 2.265-1.037 2.265-2.266.115-.96-.537-1.804-1.42-2.112zM17.971.307c-.307-.269-.806-.192-1.075.115l-1.46 1.767H13.44c-.038-1.114-.845-2.035-1.882-2.035H4.915c-.998 0-1.843.921-1.881 2.035H.96c-.422 0-.768.345-.768.768 0 .422.346.768.768.768h14.822c.23 0 .423-.115.576-.269l1.69-2.035c.269-.346.23-.845-.077-1.114z" transform="translate(9 12)"/>
                </g>
            </g>
        </g>
    </g>
</svg>
