<svg xmlns="http://www.w3.org/2000/svg" viewBox="0 0 35 35"><g fill="#DAE8FC" fill-rule="evenodd"><circle cx="17.5" cy="17.5" r="17.5" opacity=".2"/><path d="M23.625 22.083l-1.64-3.03-1.927-3.696v-4.879h.143c.428 0 .713-.295.713-.739 0-.443-.285-.739-.713-.739h-6.42c-.428 0-.714.296-.714.74 0 .443.286.738.714.738h.142v4.805l-3.638 7.243c-.214.37-.285.74-.285 1.109 0 .665.214 1.256.642 1.7.428.443.999.665 1.64.665h9.488c.357 0 .714-.074 1-.296.784-.443 1.212-1.256 1.212-2.143.071-.518-.072-1.035-.357-1.478zm-4.993-11.605v5.026c0 .148 0 .222.071.37l1.284 2.439c-.999.444-1.712.148-2.64-.296-.784-.37-1.711-.813-2.853-.665l.785-1.478c.071-.074.071-.222.071-.37v-5.026h3.282z" fill-rule="nonzero"/></g></svg>