<svg xmlns="http://www.w3.org/2000/svg" viewBox="0 0 35 35"><g fill="none" fill-rule="evenodd"><circle cx="17.5" cy="17.5" r="17.5" fill="#DAE8FC" opacity=".2"/><path fill="#FFF" fill-rule="nonzero" d="M18.053 11.148l.062.053 5.268 5.054c.28.268.28.703 0 .972a.737.737 0 01-.95.053l-.063-.053-.153-.146-7.225 6.933a3.6 3.6 0 01-3.032.945 3.549 3.549 0 01-1.932-.945 3.267 3.267 0 01-.12-4.64l.12-.123 7.226-6.932-.152-.146a.667.667 0 010-.972.738.738 0 01.95-.053zM23.3 19.13a.735.735 0 011.103 0C25.47 20.365 26 21.213 26 21.859c0 1.043-.988 1.833-2.149 1.833-1.16 0-2.149-.79-2.149-1.833 0-.646.53-1.494 1.598-2.73zm-5.034-5.84l-2.369 2.274c.302.283.74.45 1.345.5l.168.011.379.012c1.051.046 1.894.35 2.487.912l.928-.89-2.938-2.819z"/></g></svg>