<svg xmlns="http://www.w3.org/2000/svg" viewBox="0 0 35 35"><g fill="none" fill-rule="evenodd"><circle cx="17.5" cy="17.5" r="17.5" fill="#DAE8FC" opacity=".2"/><path fill="#FFF" fill-rule="nonzero" d="M23 21.778c1.183 0 2.143.945 2.143 2.11 0 1.125-.892 2.044-2.017 2.108L23 26H13c-1.183 0-2.143-.945-2.143-2.111 0-1.124.892-2.043 2.017-2.108l.126-.003h10zm-5-9.852c2.704 0 4.906 2.114 4.997 4.757l.003.169v3.518H13v-3.518c0-2.72 2.239-4.926 5-4.926zm9.995 2.963a.704.704 0 01-.545.766l-.082.014-2.143.245a.712.712 0 01-.792-.618.705.705 0 01.545-.766l.083-.014 2.143-.245a.712.712 0 01.791.618zm-19.282-.622l.083.004 2.143.245a.706.706 0 01.628.78.712.712 0 01-.709.623l-.083-.005-2.143-.245a.704.704 0 01-.627-.78.71.71 0 01.708-.622zm16.22-4.95a.697.697 0 01.06.93l-.06.065-1.428 1.408a.721.721 0 01-1.01 0 .698.698 0 01-.06-.93l.06-.065 1.428-1.408a.721.721 0 011.01 0zM12.01 9.26l.068.058 1.428 1.408c.28.274.28.72 0 .995a.723.723 0 01-.943.058l-.067-.058-1.429-1.408a.696.696 0 010-.995.723.723 0 01.943-.058zM18 7c.366 0 .668.272.71.622l.004.082v2.11a.71.71 0 01-.714.705.712.712 0 01-.71-.622l-.004-.082V7.704A.71.71 0 0118 7z"/></g></svg>