<svg xmlns="http://www.w3.org/2000/svg" viewBox="0 0 32 32"><g fill="none" fill-rule="evenodd"><circle cx="16" cy="16" r="16" fill="#DAE8FC" opacity=".375"/><path fill="#FFF" fill-rule="nonzero" d="M8.654 9.957c.335 0 .612.251.65.576l.004.076v2.608h1.307a3.267 3.267 0 013.202 2.61h9.875v-1.305a.653.653 0 011.304-.076l.004.076v7.826a.653.653 0 01-1.304.076l-.004-.076V20.39H9.308v1.957a.653.653 0 01-1.304.076L8 22.348v-11.74c0-.36.293-.651.654-.651zM19.115 8c.336 0 .612.252.65.576l.004.076v.652h.654a.653.653 0 01.076 1.3l-.076.005h-.654v.652a.653.653 0 01-1.304.076l-.003-.076v-.652h-.654a.653.653 0 01-.077-1.3l.077-.005h.654v-.652c0-.36.292-.652.653-.652z"/></g></svg>