<svg xmlns="http://www.w3.org/2000/svg" width="32" height="32" viewBox="0 0 32 32">
    <g fill="none" fill-rule="evenodd">
        <g fill="#7B92AB" fill-rule="nonzero" stroke="#7E92AC" stroke-width=".577">
            <g>
                <path d="M29.865 13c-.069-.513-.54-.873-1.054-.804-.514.069-.873.54-.804 1.054.036.27.062.542.082.813h-1.881c-.199-2.4-1.152-4.585-2.623-6.322l1.325-1.325c.112.13.225.258.332.391.185.231.457.352.732.352.205 0 .412-.068.585-.206.404-.323.47-.914.146-1.318-.691-.862-1.478-1.65-2.34-2.34-.404-.324-.995-.259-1.318.146-.324.404-.259.994.145 1.317.134.107.263.22.392.332l-1.325 1.325c-1.737-1.47-3.923-2.424-6.322-2.623v-1.88c.271.019.542.045.813.081.043.006.085.009.126.009.463 0 .865-.342.928-.813.069-.513-.29-.985-.804-1.054-.663-.09-1.328-.134-1.993-.135h-.014c-.665 0-1.33.045-1.993.135-.513.069-.873.54-.804 1.054.07.513.54.874 1.054.804.27-.036.542-.062.813-.082v1.881c-2.4.199-4.585 1.152-6.322 2.623L6.416 5.09c.13-.112.258-.225.391-.332.404-.323.47-.913.145-1.317-.323-.404-.914-.47-1.317-.146-.862.691-1.65 1.478-2.34 2.34-.324.404-.259.995.145 1.318.173.139.38.206.586.206.274 0 .547-.12.732-.352.107-.133.22-.262.332-.391L6.415 7.74c-1.47 1.737-2.424 3.923-2.623 6.322h-1.88c.019-.271.045-.543.081-.813.069-.513-.29-.985-.804-1.054-.515-.069-.985.291-1.054.804-.09.665-.135 1.338-.135 2 0 .662.045 1.335.135 2 .063.47.466.813.928.813.042 0 .084-.003.127-.009.513-.069.873-.54.804-1.054-.037-.27-.063-.542-.083-.813h1.881c.199 2.4 1.152 4.585 2.623 6.322L5.09 23.584c-.112-.13-.225-.258-.332-.391-.323-.404-.913-.47-1.317-.146-.404.324-.47.914-.146 1.318.691.862 1.478 1.65 2.34 2.34.173.139.38.206.586.206.274 0 .547-.12.732-.352.324-.404.259-.994-.145-1.317-.134-.107-.263-.22-.392-.332l1.325-1.325c1.737 1.47 3.924 2.424 6.322 2.623v1.88c-.271-.019-.542-.045-.812-.081-.514-.07-.986.291-1.055.804-.069.513.291.985.804 1.054.665.09 1.338.135 2 .135.662 0 1.335-.045 2-.135.513-.069.873-.54.804-1.054-.069-.513-.539-.873-1.054-.804-.27.036-.542.062-.813.082v-1.881c2.4-.199 4.585-1.152 6.322-2.623l1.325 1.325c-.13.112-.258.225-.391.332-.404.323-.47.913-.146 1.317.186.231.458.352.733.352.205 0 .412-.068.585-.206.862-.69 1.65-1.478 2.34-2.34.324-.404.259-.994-.145-1.317-.404-.325-.995-.26-1.318.145-.107.133-.22.262-.332.391l-1.325-1.325c1.471-1.737 2.424-3.923 2.623-6.322h1.881c-.02.271-.046.543-.082.813-.069.513.291.985.804 1.054.042.006.085.009.126.009.462 0 .864-.342.928-.813.09-.665.135-1.338.135-2 0-.662-.045-1.335-.135-2zm-7.61 7.929l-1.337-1.338c.208-.267.4-.549.57-.844.26-.448.107-1.021-.341-1.28-.448-.26-1.022-.108-1.281.34-.495.853-1.206 1.565-2.059 2.059-.448.26-.6.833-.34 1.28.173.3.488.469.811.469.16 0 .321-.041.47-.127.294-.17.575-.362.843-.57l1.338 1.337c-1.617 1.324-3.681 2.12-5.929 2.12s-4.312-.796-5.929-2.12l1.338-1.337c.268.208.55.4.844.57.148.086.31.127.47.127.323 0 .637-.167.811-.468.26-.448.107-1.021-.34-1.28-.854-.495-1.566-1.207-2.06-2.06-.26-.448-.833-.6-1.28-.34-.449.259-.601.833-.342 1.28.171.295.362.576.57.844L7.745 20.93c-1.324-1.617-2.12-3.681-2.12-5.929s.796-4.312 2.12-5.929l1.337 1.338c-.208.267-.399.549-.57.844-.26.448-.107 1.021.341 1.28.148.087.31.127.47.127.323 0 .637-.167.811-.467.494-.853 1.206-1.565 2.059-2.059.448-.26.6-.833.34-1.28-.259-.449-.832-.602-1.28-.342-.295.171-.576.362-.844.57L9.07 7.745c1.617-1.324 3.681-2.12 5.929-2.12s4.312.796 5.929 2.12L19.59 9.082c-.267-.207-.549-.399-.843-.57-.448-.26-1.022-.107-1.281.341-.26.448-.107 1.022.34 1.281.853.495 1.565 1.206 2.06 2.059.173.3.488.467.811.467.16 0 .321-.04.47-.126.447-.26.6-.834.34-1.281-.17-.295-.362-.577-.57-.844l1.337-1.338c1.324 1.617 2.12 3.681 2.12 5.929s-.796 4.312-2.12 5.929z" transform="translate(-1847.000000, -467.000000) translate(1848.000000, 468.000000)"/>
            </g>
        </g>
    </g>
</svg>
