<svg xmlns="http://www.w3.org/2000/svg" width="35" height="35" viewBox="0 0 35 35">
    <g fill="none" fill-rule="evenodd">
        <g>
            <g transform="translate(-481 -51) translate(481 51)">
                <circle cx="17.5" cy="17.5" r="17.5" fill="#DAE8FC" opacity=".2"/>
                <g fill="#FFF" fill-rule="nonzero" transform="translate(11 9)">
                    <circle cx="4.821" cy="1.714" r="1.714"/>
                    <path d="M10.629 13.564c-.579 2.057-2.486 3.579-4.736 3.579-2.722 0-4.929-2.207-4.929-4.929v-.3L.45 10.243c-.214.621-.343 1.264-.343 1.95 0 3.193 2.593 5.786 5.786 5.786 2.357 0 4.393-1.415 5.293-3.45l-.557-.965z"/>
                    <path d="M13.929 14.143l-2.572-4.5c-.15-.257-.428-.429-.75-.429h-3.45L6.73 5.271c-.172-.942-1.05-1.564-1.993-1.392-.215.042-.407.107-.579.214L.75 6.107c-.343.193-.493.622-.386.986l1.072 3.428c.107.365.45.6.814.6.086 0 .171-.021.257-.042.45-.15.707-.622.557-1.072l-.878-2.786 1.264-.75.536 3.022c.15.836.878 1.414 1.693 1.414h4.435L12.43 15c.15.279.45.429.75.429.15 0 .3-.043.428-.108.407-.235.557-.771.322-1.178z"/>
                </g>
            </g>
        </g>
    </g>
</svg>
