<svg xmlns="http://www.w3.org/2000/svg" width="35" height="35" viewBox="0 0 35 35">
    <g fill="none" fill-rule="evenodd">
        <g>
            <g transform="translate(-423 -154) translate(423 154)">
                <circle cx="17.5" cy="17.5" r="17.5" fill="#8577D1" opacity=".2"/>
                <path fill="#FFF" fill-rule="nonzero" d="M9.692 12.087c.355 0 .648.269.688.614l.005.082v2.782h1.384c1.665 0 3.064 1.184 3.39 2.783h10.456v-1.391c0-.385.31-.696.693-.696.355 0 .647.268.687.614l.005.082v8.347c0 .385-.31.696-.692.696-.355 0-.648-.269-.688-.615l-.005-.08v-2.088h-15.23v2.087c0 .385-.31.696-.693.696-.355 0-.647-.269-.687-.615L9 25.305V12.782c0-.385.31-.696.692-.696zM20.77 10c.355 0 .648.269.688.615l.005.08v.696h.692c.382 0 .692.312.692.696 0 .357-.267.65-.611.69l-.081.006h-.692v.695c0 .384-.31.696-.693.696-.355 0-.647-.269-.687-.615l-.005-.08v-.696h-.692c-.383 0-.693-.312-.693-.696 0-.357.268-.65.612-.691l.08-.005h.693v-.695c0-.385.31-.696.692-.696z"/>
            </g>
        </g>
    </g>
</svg>
