<svg width="35" height="35" viewBox="0 0 35 35" xmlns="http://www.w3.org/2000/svg">
    <g fill="none" fill-rule="evenodd">
        <circle fill="#DAE8FC" opacity=".2" cx="17.5" cy="17.5" r="17.5"/>
        <path d="M9.465 10.89c.367 0 .67.275.71.63l.005.083v2.854h1.43a3.574 3.574 0 0 1 3.503 2.853h10.8v-1.427a.714.714 0 0 1 1.426-.083l.005.083v8.56a.714.714 0 0 1-1.426.083l-.005-.083v-2.14H10.18v2.14a.714.714 0 0 1-1.425.083l-.005-.083v-12.84c0-.394.32-.713.715-.713zm11.442-2.14c.367 0 .67.275.71.63l.006.083v.713h.715a.714.714 0 0 1 .083 1.422l-.083.005h-.715v.714a.714.714 0 0 1-1.426.083l-.005-.083v-.714h-.715a.714.714 0 0 1-.083-1.422l.083-.004h.715v-.714c0-.394.32-.713.715-.713z" fill="#FFF" fill-rule="nonzero"/>
    </g>
</svg>
