<svg xmlns="http://www.w3.org/2000/svg" viewBox="0 0 26 30"><g fill="#10CCCB"><path d="M18.81 26.698h-4.84a1.146 1.146 0 110-2.295h4.84a1.147 1.147 0 010 2.295"/><path d="M16.39 29.119a1.147 1.147 0 01-1.147-1.148v-4.84a1.146 1.146 0 112.293 0v4.84c0 .634-.513 1.148-1.146 1.148m-3.4-9.864c-5.31 0-9.628-4.319-9.628-9.628C3.362 4.319 7.681 0 12.99 0c5.307 0 9.627 4.319 9.627 9.627 0 5.31-4.32 9.628-9.627 9.628m0-16.96c-4.043 0-7.333 3.29-7.333 7.332 0 4.043 3.29 7.332 7.333 7.332s7.332-3.29 7.332-7.332c0-4.043-3.29-7.332-7.332-7.332"/><path d="M1.148 29.834a1.147 1.147 0 01-1.147-1.122c-.004-.206-.071-5.108 3.327-8.545 2.136-2.161 5.141-3.25 8.867-3.198a1.148 1.148 0 01-.011 2.295c-.06.003-.121-.001-.181-.001-3.014 0-5.378.842-7.029 2.504-2.715 2.731-2.679 6.857-2.678 6.898a1.148 1.148 0 01-1.125 1.168h-.023"/><path d="M24.832 29.835h-.026a1.15 1.15 0 01-1.122-1.17c0-.065.03-4.174-2.679-6.898-1.681-1.693-4.078-2.554-7.197-2.503h-.012a1.146 1.146 0 01-.012-2.295c3.766-.016 6.732 1.038 8.867 3.198 3.399 3.437 3.332 8.339 3.328 8.545a1.15 1.15 0 01-1.147 1.123m-11.839-14.84c-.723 0-1.24-.16-1.321-.189a1.146 1.146 0 01.707-2.182c.03.008.61.173 1.256-.01a1.143 1.143 0 011.417.79c.173.61-.18 1.244-.79 1.417-.458.13-.891.174-1.269.174"/></g></svg>