<svg xmlns="http://www.w3.org/2000/svg" width="39" height="44" viewBox="0 0 39 44">
    <g fill="none" fill-rule="evenodd">
        <g fill-rule="nonzero">
            <g>
                <path fill="#FFF" d="M37.603 17.304c-.194-.114-.4-.206-.614-.273.246-4.473-1.005-8.416-3.682-11.435C30.107 1.988 25.205 0 19.5 0 13.796 0 8.892 1.988 5.693 5.596 3.017 8.615 1.765 12.557 2.01 17.03c-.214.067-.42.16-.614.274C.17 18.055 0 19.502 0 20.952c0 2.484.923 4.672 2.345 5.678C3.81 36.1 11.562 44 19.5 44c7.94 0 15.693-7.902 17.155-17.37C38.078 25.624 39 23.436 39 20.952c0-1.45-.168-2.897-1.397-3.648zM7.214 7.002c2.806-3.164 7.17-4.907 12.286-4.907 5.118 0 9.48 1.743 12.286 4.907 2.268 2.56 3.344 5.927 3.166 9.771-.273-.005-.547-.01-.857-.01-.218-.014-.437.017-.644.091-4.029 1.831-8.573-.644-12.97-3.036-4.8-2.612-9.766-5.314-13.09-.831-.097.133-.163.287-.192.451-.265 1.547-1.798 2.862-2.398 3.326-.271 0-.51.005-.752.01-.179-3.845.896-7.212 3.165-9.772zm28.068 18.027c-.321.15-.544.458-.59.815-1.227 9.464-8.992 16.06-15.192 16.06-6.2 0-13.965-6.596-15.193-16.06-.046-.357-.269-.664-.589-.815-.807-.38-1.665-1.937-1.665-4.077 0-1.607.3-1.79.4-1.851.373-.23 1.288-.242 2.46-.242.072 0 .239.006.219 0 .206 0 .407-.064.578-.182.489-.336 2.88-2.093 3.457-4.604 2.154-2.669 5.36-1.121 10.347 1.593 4.542 2.47 9.678 5.267 14.565 3.193h.008c1.17 0 2.087.012 2.461.242.099.061.4.244.4 1.851 0 2.14-.859 3.698-1.666 4.077z" transform="translate(-35.000000, -121.000000) translate(35.000000, 121.000000)"/>
                <path fill="#10CCCB" d="M16.422 26.255c.354 0 .684-.187.87-.494.188-.308.207-.692.05-1.016-.503-1.214-1.642-2.028-2.931-2.095-1.306.058-2.468.861-3.007 2.076-.26.515-.063 1.147.44 1.412.504.266 1.124.064 1.384-.45.187-.506.63-.868 1.155-.943h.007c.511.07.94.428 1.11.925.173.358.53.585.922.585zM24.674 22.65c-1.209-.041-2.342.763-3.007 2.076-.26.515-.063 1.147.44 1.412.505.266 1.124.064 1.384-.45.187-.506.63-.868 1.155-.943h.008c.51.07.94.428 1.11.925.16.337.486.562.853.587.367.026.72-.152.923-.464.204-.312.229-.712.064-1.048-.502-1.214-1.64-2.028-2.93-2.095zM23.07 34.24c-.497-.276-1.12-.09-1.391.417-.3.56-1.168.934-2.16.934h-.008c-.998-.002-1.898-.384-2.187-.93-.27-.509-.892-.698-1.391-.423-.499.275-.685.91-.415 1.42.662 1.248 2.19 2.026 3.989 2.029h.01c1.777 0 3.294-.776 3.962-2.025.13-.244.162-.53.085-.798-.077-.267-.255-.491-.494-.624z" transform="translate(-35.000000, -121.000000) translate(35.000000, 121.000000)"/>
            </g>
        </g>
    </g>
</svg>
