<svg xmlns="http://www.w3.org/2000/svg" viewBox="0 0 56 54"><g fill="none"><path fill="#10CCCB" d="M40.867 53.38h-24.71a.952.952 0 01-.95-.95c0-.522.427-.95.95-.95h24.71c.523 0 .95.428.95.95 0 .523-.427.95-.95.95zM12.688 42.974l-5.085 5.085a.966.966 0 000 1.346.967.967 0 001.347 0l5.084-5.085a.964.964 0 000-1.346.937.937 0 00-1.346 0z"/><path fill="#FFF" d="M53.54 1.742c-2.123-2.122-5.56-2.122-7.667 0L14.557 33.264c-.729.729-.618 1.79-.032 2.44L.475 49.863a1.61 1.61 0 00.602 2.661c2.962 1.078 8.411 1.996 13.195-2.82 4.657-4.482 3.485-7.206 6.43-10.327 1.3-1.394 2.915-2.407 4.246-3.104h.063c1.14 0 2.25-.46 3.057-1.268L53.54 9.425a5.46 5.46 0 000-7.683zM27.466 22.968l1.885-1.9h9.9l-1.901 1.9h-9.884zm7.999 1.9L33.58 26.77h-9.884l1.885-1.901h9.884zM19.309 38.08c-1.52 1.632-2.123 3.153-2.693 4.626-.681 1.742-1.315 3.39-3.659 5.639-2.09 2.09-4.498 3.136-7.175 3.136-1.188 0-2.424-.206-3.644-.602l14.51-14.604h4.688a15.376 15.376 0 00-2.027 1.805zm7.413-4.419c-.46.46-1.061.713-1.71.713h-7.746a.474.474 0 01-.333-.808l4.863-4.895h9.884l-4.958 4.99zm25.47-25.582l-11.04 11.088h-9.9L47.203 3.09a3.502 3.502 0 012.487-1.03 3.5 3.5 0 012.487 1.03 3.514 3.514 0 01.016 4.99z"/></g></svg>