<svg xmlns="http://www.w3.org/2000/svg" width="35" height="35" viewBox="0 0 35 35">
    <g fill="none" fill-rule="evenodd">
        <g>
            <g transform="translate(-325 -51) translate(325 51)">
                <circle cx="17.5" cy="17.5" r="17.5" fill="#DAE8FC" opacity=".2"/>
                <path fill="#FFF" fill-rule="nonzero" d="M23 21.778c1.183 0 2.143.945 2.143 2.11 0 1.125-.892 2.044-2.017 2.108L23 26H13c-1.183 0-2.143-.945-2.143-2.111 0-1.124.892-2.043 2.017-2.108l.126-.003h10zm-5-9.852c2.704 0 4.906 2.114 4.997 4.757l.003.169v3.518H13v-3.518c0-2.72 2.239-4.926 5-4.926zm9.995 2.963c.042.359-.197.686-.545.766l-.082.014-2.143.245c-.392.045-.746-.232-.792-.618-.042-.359.197-.685.545-.766l.083-.014 2.143-.245c.391-.044.746.232.791.618zm-19.282-.622l.083.004 2.143.245c.392.044.673.394.628.78-.042.358-.351.622-.709.623l-.083-.005-2.143-.245c-.392-.044-.673-.393-.627-.78.042-.358.35-.622.708-.622zm16.22-4.95c.258.254.278.653.06.93l-.06.065-1.428 1.408c-.279.275-.731.275-1.01 0-.258-.254-.277-.653-.06-.93l.06-.065 1.428-1.408c.28-.275.732-.275 1.01 0zM12.01 9.26l.068.058 1.428 1.408c.28.274.28.72 0 .995-.257.253-.663.273-.943.058l-.067-.058-1.429-1.408c-.279-.274-.279-.72 0-.995.258-.253.663-.273.943-.058zM18 7c.366 0 .668.272.71.622l.004.082v2.11c0 .39-.32.705-.714.705-.366 0-.668-.272-.71-.622l-.004-.082V7.704c0-.389.32-.704.714-.704z"/>
            </g>
        </g>
    </g>
</svg>
