<svg xmlns="http://www.w3.org/2000/svg" viewBox="0 0 36 36"><defs/><path fill="#7B92AB" fill-rule="evenodd" stroke="#012239" stroke-width=".53" d="M21.122.265c1.193 0 2.387.455 3.298 1.366.9.9 1.356 2.079 1.365 3.26.01 1.182-.427 2.367-1.308 3.278h0l-5.342 5.342c-.414.414-.956.621-1.499.621-.542 0-1.085-.207-1.499-.62h0L10.856 8.23c-.91-.94-1.362-2.135-1.362-3.322 0-1.191.456-2.373 1.36-3.277.91-.91 2.103-1.366 3.297-1.366s2.387.455 3.298 1.366C18.734.721 19.928.265 21.122.265zM5.082 8.748c.38 0 .76.144 1.05.433h0l7.79 7.772c.286.284.43.656.436 1.029.006.39-.126.764-.392 1.048h0l-7.833 7.817c-.285.284-.655.428-1.027.434-.373.005-.748-.13-1.034-.399-.302-.301-.46-.68-.472-1.058-.012-.38.122-.757.393-1.044h0l4.882-4.873-7.12-.297c-.413.001-.786-.165-1.055-.435-.269-.268-.435-.64-.435-1.049 0-.41.166-.78.435-1.05.268-.268.64-.434 1.049-.434h7.229L4.03 11.288c-.29-.29-.436-.67-.436-1.05 0-.379.144-.759.433-1.049.293-.292.674-.44 1.054-.44zm24.946 0c.373-.006.748.129 1.034.398.303.301.46.68.472 1.058.012.38-.122.757-.392 1.044h0l-4.883 4.873 7.121.297c.412-.001.785.165 1.055.435.268.268.434.64.434 1.05 0 .409-.166.78-.434 1.049-.269.268-.64.434-1.05.434h0-7.228l4.947 5.355c.284.284.43.654.435 1.027.006.373-.128.749-.397 1.035-.309.308-.697.465-1.082.472-.386.007-.767-.137-1.058-.428h0l-7.79-7.772c-.285-.284-.43-.655-.436-1.028-.005-.39.127-.764.392-1.049h0l7.834-7.817c.284-.284.654-.428 1.026-.433zM17.614 21.565c.39-.005.764.127 1.049.392h0l7.817 7.834c.283.284.428.654.433 1.026.006.373-.129.748-.398 1.034-.32.322-.692.472-1.068.477-.373.006-.749-.128-1.035-.397h0l-4.873-4.883-.296 7.121c.001.412-.165.785-.435 1.055-.269.268-.64.434-1.05.434-.41 0-.78-.166-1.049-.434-.268-.269-.434-.64-.434-1.05h0v-7.228l-5.355 4.947c-.29.29-.669.435-1.049.436-.38 0-.76-.144-1.05-.433-.296-.298-.441-.677-.441-1.057 0-.38.144-.759.433-1.048h0L16.585 22c.285-.285.656-.43 1.03-.436z"/></svg>