<svg xmlns="http://www.w3.org/2000/svg" viewBox="0 0 35 35"><g fill="#DAE8FC" fill-rule="evenodd"><circle cx="17.5" cy="17.5" r="17.5" opacity=".2"/><path d="M14.789 9.279c.8 0 1.497 1.739 1.795 4.768l.084-.051c.347-.231.546-.59.546-1.009V8.46c0-.613 1.51-.613 1.51 0v4.527c0 .418.194.778.541 1.009l.118.078c.288-3.137.997-4.943 1.812-4.943 1.065 0 4.894 3 5.528 9.156.792 7.682-.214 8.52-2.356 6.843-.522-.408-1.36-.849-2.146-.915-1.366-.115-2.975-.423-2.975-6.88 0-.59.012-1.153.035-1.687l-.679-.458c-.414-.28-.8-.283-1.218-.008l-.689.453c.027.581.042 1.198.042 1.847 0 6.456-1.609 6.765-2.975 6.88-.785.066-1.624.507-2.146.915-2.142 1.676-3.147.84-2.356-6.843.634-6.157 4.463-9.155 5.528-9.155z"/></g></svg>