<svg xmlns="http://www.w3.org/2000/svg" viewBox="0 0 54 54"><g fill="none" fill-rule="evenodd" stroke-linecap="round" stroke-linejoin="round" stroke-width="2.2"><path stroke="#FFF" d="M13.75 14.63C5.3 19.464 2.425 30.921 2 48.156a4.276 4.276 0 004.638 4.422l12.9-1.32a4.294 4.294 0 003.74-4.93l-1.168-7.973a268.354 268.354 0 01-2.182-20.211 4.209 4.209 0 00-6.178-3.514h0z"/><path stroke="#10CCCB" d="M14.833 30.233L10.8 26.2m2.18 5.449L15.2 37.2M13 40.5l2.2-3.3 2.2 1.1"/><path stroke="#FFF" d="M40.85 14.63c8.461 4.84 11.325 16.291 11.748 33.526a4.276 4.276 0 01-4.638 4.422l-12.9-1.32a4.292 4.292 0 01-3.74-4.93l1.168-7.973a268.354 268.354 0 002.182-20.211 4.207 4.207 0 016.18-3.514z"/><path stroke="#10CCCB" d="M39.767 30.233L43.8 26.2m-2.18 5.449L39.4 37.2m2.2 3.3l-2.2-3.3-2.2 1.1"/><path stroke="#FFF" d="M27.3 2v18.7L8.6 35m18.7-14.3L46 35"/></g></svg>