<svg xmlns="http://www.w3.org/2000/svg" width="23" height="28" viewBox="0 0 23 28">
    <defs>
        <linearGradient id="6m16lrh0pa" x1="0%" x2="100%" y1="50%" y2="50%">
            <stop offset="0%" stop-color="#00F2FE"/>
            <stop offset="2.08%" stop-color="#03EFFE"/>
            <stop offset="29.31%" stop-color="#24D2FE"/>
            <stop offset="55.38%" stop-color="#3CBDFE"/>
            <stop offset="79.56%" stop-color="#4AB0FE"/>
            <stop offset="100%" stop-color="#4FACFE"/>
        </linearGradient>
    </defs>
    <g fill="none" fill-rule="evenodd">
        <g fill="url(#6m16lrh0pa)" fill-rule="nonzero" stroke="url(#6m16lrh0pa)" stroke-width=".5" transform="translate(-113.000000, -49.000000)">
            <g>
                <path d="M20.484 2.15h-.306C19.974.95 18.955 0 17.63 0H3.363C2.038 0 1.019.95.815 2.15H.51c-.306 0-.51.25-.51.5V9.3c0 .3.255.5.51.5h.305c.204 1.2 1.274 2.15 2.548 2.15h.102V25H3.26c-.306 0-.51.25-.51.5 0 .3.255.5.51.5h14.471c.306 0 .51-.25.51-.5 0-.3-.255-.5-.51-.5h-.203V11.95h.101c1.274 0 2.344-.95 2.548-2.15h.306c.306 0 .51-.25.51-.5V2.65c.05-.3-.204-.5-.51-.5zM1.019 8.8V3.15H19.974V8.8H1.02zM3.363 1H17.63c.714 0 1.325.5 1.53 1.15H1.833C2.038 1.5 2.65 1 3.363 1zm1.121 10.95h2.752c.102.95.611 1.75 1.375 2.25-1.375.7-2.344 2.1-2.344 3.7V25H4.484V11.95h0zm6.013 1.85s0 0 0 0 0 0 0 0c-1.121 0-2.038-.8-2.191-1.8h4.382c-.153 1-1.07 1.8-2.191 1.8zm3.21 11.2h-6.42v-7.05c0-1.75 1.426-3.15 3.21-3.15 0 0 0 0 0 0s0 0 0 0c1.783 0 3.21 1.4 3.21 3.15V25zm2.802 0h-1.783v-7.05c0-1.65-.968-3.05-2.344-3.7.764-.5 1.274-1.3 1.376-2.25h2.751v13zm1.121-14.05H3.363c-.713 0-1.325-.5-1.529-1.15H19.16c-.204.65-.815 1.15-1.529 1.15z" transform="translate(114.000000, 50.000000)"/>
            </g>
        </g>
    </g>
</svg>
