<svg xmlns="http://www.w3.org/2000/svg" width="26" height="28" viewBox="0 0 26 28">
    <defs>
        <linearGradient id="mu5uve3saa" x1="0%" x2="100%" y1="50%" y2="50%">
            <stop offset="0%" stop-color="#00F2FE"/>
            <stop offset="2.08%" stop-color="#03EFFE"/>
            <stop offset="29.31%" stop-color="#24D2FE"/>
            <stop offset="55.38%" stop-color="#3CBDFE"/>
            <stop offset="79.56%" stop-color="#4AB0FE"/>
            <stop offset="100%" stop-color="#4FACFE"/>
        </linearGradient>
    </defs>
    <g fill="none" fill-rule="evenodd">
        <g fill="url(#mu5uve3saa)" fill-rule="nonzero" stroke="url(#mu5uve3saa)" stroke-width=".5" transform="translate(-111.000000, -99.000000)">
            <g>
                <path d="M24 11.977h0C24 5.34 18.6 0 12 0S0 5.34 0 11.977h0c0 3.493 1.5 6.637 3.95 8.883v3.244c0 1.048.85 1.896 1.9 1.896H18.1c1.05 0 1.9-.848 1.9-1.896V20.86c2.5-2.246 4-5.44 4-8.883h0zm-.95-.5H20.6c-.25-4.34-3.75-7.834-8.1-8.084V.948c5.7.25 10.3 4.84 10.55 10.53zM9.6 13.026c0-1.298 1.1-2.395 2.4-2.395 1.3 0 2.4 1.097 2.4 2.395 0 1.297-1.1 2.395-2.4 2.395-1.3 0-2.4-1.048-2.4-2.395zm5.45 3.344v8.633h-6.1v-8.633h6.1zm.95 0h1c.25 0 .45-.2.45-.45s-.2-.449-.45-.449h-2.7c.65-.599 1.05-1.447 1.05-2.395 0-1.847-1.5-3.344-3.35-3.344s-3.35 1.497-3.35 3.344c0 .948.4 1.796 1.05 2.395H7c-.25 0-.45.2-.45.45 0 .249.2.449.45.449h1v2.095c-2.25-1.397-3.65-3.792-3.65-6.487 0-4.192 3.45-7.635 7.65-7.635s7.65 3.443 7.65 7.635c0 2.695-1.4 5.14-3.65 6.487V16.37h0zM11.55.949v2.444c-4.4.25-7.9 3.743-8.1 8.085H.95C1.2 5.788 5.8 1.198 11.55.948zM.95 12.425H3.4c.15 3.044 1.85 5.69 4.55 7.086v2.695c-1.2-.449-2.25-1.098-3.2-1.896 0-.05-.05-.05-.05-.05-2.2-1.946-3.6-4.74-3.75-7.835zM4.9 24.054v-2.495c.95.698 1.95 1.247 3.1 1.596v1.797H5.85c-.5.05-.95-.35-.95-.898zm14.2 0c0 .549-.45.948-.95.948H16v-1.797c1.15-.399 2.15-.948 3.1-1.597v2.446zm.2-3.793c-.05 0-.05.05-.05.05-.95.798-2 1.447-3.2 1.896v-2.695c2.7-1.397 4.4-4.092 4.55-7.086h2.45c-.15 3.094-1.55 5.889-3.75 7.835z" transform="translate(112.000000, 100.000000)"/>
            </g>
        </g>
    </g>
</svg>
