<svg xmlns="http://www.w3.org/2000/svg" width="32" height="27" viewBox="0 0 32 27">
    <defs>
        <linearGradient id="y42wb1efqa" x1="0%" x2="100%" y1="50%" y2="50%">
            <stop offset="0%" stop-color="#00F2FE"/>
            <stop offset="2.08%" stop-color="#03EFFE"/>
            <stop offset="29.31%" stop-color="#24D2FE"/>
            <stop offset="55.38%" stop-color="#3CBDFE"/>
            <stop offset="79.56%" stop-color="#4AB0FE"/>
            <stop offset="100%" stop-color="#4FACFE"/>
        </linearGradient>
    </defs>
    <g fill="none" fill-rule="evenodd">
        <g fill="url(#y42wb1efqa)" fill-rule="nonzero" stroke="url(#y42wb1efqa)" stroke-width=".5" transform="translate(-108.000000, -149.000000)">
            <g>
                <path d="M29.423 13.926H16.385V3.803c0-1.398-1.039-2.573-2.423-2.852V.559c0-.28-.231-.559-.577-.559H3c-.288 0-.577.224-.577.56v.335C1.038 1.175 0 2.405 0 3.803v15.213c0 .783.288 1.454.808 1.957v1.846c0 1.174.98 2.181 2.25 2.181h10.269c1.211 0 2.25-.95 2.25-2.181v-1.846c.461-.447.75-1.062.808-1.734h7.846c.173 0 .288-.056.404-.167l3.923-4.027h.865c.289 0 .577-.224.577-.56 0-.335-.23-.559-.577-.559zM15 3.671v14.658c0 .755-.391 1.402-1 1.671V2c.609.216 1 .862 1 1.67zM3 1h9v20H3V1zM1 3.67c0-.754.435-1.454 1-1.67v18c-.609-.27-1-.916-1-1.67V3.67zm13.88 19.356c0 .564-.536.974-1.132.974H3.133C2.477 24 2 23.538 2 23.026V22c.06 0 .179.051.239.051.119 0 .178.052.298.052 0 0 0 0 0 0v.307c0 .257.238.513.596.513h10.734c.298 0 .596-.205.596-.513v-.307s0 0 0 0c.12 0 .18-.052.298-.052.06 0 .18-.051.239-.051v1.026h-.12zM23.12 18H16v-3h10l-2.88 3z" transform="translate(109.000000, 150.000000)"/>
            </g>
        </g>
    </g>
</svg>
