<svg xmlns="http://www.w3.org/2000/svg" width="27" height="28" viewBox="0 0 27 28">
    <defs>
        <linearGradient id="t1o6n9siwa" x1="0%" x2="100%" y1="50%" y2="50%">
            <stop offset="0%" stop-color="#00F2FE"/>
            <stop offset="2.08%" stop-color="#03EFFE"/>
            <stop offset="29.31%" stop-color="#24D2FE"/>
            <stop offset="55.38%" stop-color="#3CBDFE"/>
            <stop offset="79.56%" stop-color="#4AB0FE"/>
            <stop offset="100%" stop-color="#4FACFE"/>
        </linearGradient>
        <linearGradient id="z9xb86a2ub" x1="0%" x2="100%" y1="50%" y2="50%">
            <stop offset="0%" stop-color="#00F2FE"/>
            <stop offset="2.08%" stop-color="#03EFFE"/>
            <stop offset="29.31%" stop-color="#24D2FE"/>
            <stop offset="55.38%" stop-color="#3CBDFE"/>
            <stop offset="79.56%" stop-color="#4AB0FE"/>
            <stop offset="100%" stop-color="#4FACFE"/>
        </linearGradient>
        <linearGradient id="0praafbdrc" x1="0%" x2="100%" y1="50%" y2="50%">
            <stop offset="0%" stop-color="#00F2FE"/>
            <stop offset="2.08%" stop-color="#03EFFE"/>
            <stop offset="29.31%" stop-color="#24D2FE"/>
            <stop offset="55.38%" stop-color="#3CBDFE"/>
            <stop offset="79.56%" stop-color="#4AB0FE"/>
            <stop offset="100%" stop-color="#4FACFE"/>
        </linearGradient>
        <linearGradient id="2z0j7kc6vd" x1="0%" x2="100%" y1="50%" y2="50%">
            <stop offset="0%" stop-color="#00F2FE"/>
            <stop offset="2.08%" stop-color="#03EFFE"/>
            <stop offset="29.31%" stop-color="#24D2FE"/>
            <stop offset="55.38%" stop-color="#3CBDFE"/>
            <stop offset="79.56%" stop-color="#4AB0FE"/>
            <stop offset="100%" stop-color="#4FACFE"/>
        </linearGradient>
    </defs>
    <g fill="none" fill-rule="evenodd">
        <g fill-rule="nonzero" stroke-width=".568">
            <g>
                <path fill="url(#t1o6n9siwa)" stroke="url(#t1o6n9siwa)" d="M5.996 23.279l-.314.837h.275v.293c0 1.005.59 1.591 1.533 1.591h10.335c.707 0 1.297-.46 1.415-1.13.078-.42.078-1.256.078-1.34 0-.084 0-.168-.04-.21l-.628-1.423c-.59-1.34-1.218-2.721-1.808-4.061-.235-.503-.628-.503-.786-.503H9.258s0 0 0 0c-.393 0-.668.168-.825.545-.55 1.298-1.14 2.554-1.73 3.851l-.628 1.34c0 .084-.04.126-.079.21zm.983.25l.628-1.339c.55-1.256 1.14-2.512 1.69-3.81h6.68c.59 1.298 1.18 2.638 1.77 3.936l.589 1.298c0 .293 0 .837-.04 1.088-.039.168-.235.251-.432.251H7.53c-.393 0-.55-.167-.55-.586v-.377V23.53h0z" transform="translate(-111.000000, -198.000000) translate(112.000000, 199.000000)"/>
                <path fill="url(#z9xb86a2ub)" stroke="url(#z9xb86a2ub)" d="M15.057 12.711h-5.56c-.893 0-1.502.578-1.542 1.464 0 .655 0 1.849.04 2.118v.463h8.482v-.501-.694-1.617h0c0-.732-.608-1.233-1.42-1.233zm.446 2.812v.231H9.01v-1.618c0-.346.162-.5.527-.5h5.52c.203 0 .406.077.446.346v1.541z" transform="translate(-111.000000, -198.000000) translate(112.000000, 199.000000)"/>
                <path fill="url(#0praafbdrc)" stroke="url(#0praafbdrc)" d="M17.755 14.982c.04 0 .12.04.16.04.199 0 .398-.12.478-.32.599-1.686.439-3.572-.439-5.137-.917-1.645-2.473-2.768-4.308-3.09-.399-.08-.758-.12-1.157-.12-3.111 0-5.784 2.328-6.183 5.457-.12.843-.04 1.686.16 2.528.08.281.359.441.598.361.28-.08.439-.36.36-.602-.2-.682-.24-1.404-.16-2.126.359-2.608 2.593-4.574 5.185-4.574.32 0 .639.04.958.08 1.556.28 2.872 1.244 3.63 2.608.758 1.324.878 2.889.359 4.293-.04.2.12.482.359.602z" transform="translate(-111.000000, -198.000000) translate(112.000000, 199.000000)"/>
                <path fill="url(#2z0j7kc6vd)" stroke="url(#2z0j7kc6vd)" d="M14.832.22l-.12-.042c-.996-.163-2.073-.204-3.15-.163-.438.04-.916.082-1.315.163h-.12c-.956.164-1.834.45-2.67.86l-.04.082c-.719.368-1.356.736-1.955 1.145C2.033 4.64 0 8.608 0 12.823c0 3.642 1.515 7.161 4.187 9.576.199.204.518.163.717-.041.2-.205.16-.532-.04-.737C2.432 19.371.997 16.18.997 12.823c0-3.887 1.874-7.53 4.984-9.74.558-.367 1.196-.736 1.834-1.063l.08-.041c.757-.368 1.555-.614 2.392-.778h.08c.398-.081.837-.122 1.236-.163.997-.082 1.953-.041 2.87.123h.08c5.542 1.104 9.49 5.974 9.49 11.662 0 3.356-1.396 6.589-3.868 8.798-.2.205-.239.491-.04.737.08.123.24.164.36.164.119 0 .238-.041.318-.123C23.485 19.984 25 16.465 25 12.823 25.04 6.644 20.733 1.365 14.832.22z" transform="translate(-111.000000, -198.000000) translate(112.000000, 199.000000)"/>
            </g>
        </g>
    </g>
</svg>
