<svg xmlns="http://www.w3.org/2000/svg" viewBox="0 0 54 54"><g fill="none" fill-rule="evenodd" stroke-linecap="round" stroke-linejoin="round" stroke-width="2.2" transform="translate(2 2)"><path stroke="#10CCCB" d="M0 19.8h8.21c.368 0 .712-.184.916-.49l3.159-4.74a1.102 1.102 0 011.83 0l2.385 3.565a1.101 1.101 0 001.92-.165l2.42-5.419a1.1 1.1 0 012.055.114l4.458 14.118a1.101 1.101 0 002.125-.106l3.74-17.914a1.1 1.1 0 012.134-.077L38.28 19a1.1 1.1 0 001.058.799H50.6"/><path stroke="#FFF" d="M8.8 44v2.2M22 44v2.2M35.2 44v2.2m-19.8-6.6v6.6m13.2-6.6v6.6m13.2-6.6v6.6"/><rect width="50.6" height="50.6" stroke="#FFF" rx="4.4"/></g></svg>