<svg width="35" height="35" viewBox="0 0 35 35" xmlns="http://www.w3.org/2000/svg">
    <g fill="none" fill-rule="evenodd">
        <circle fill="#DAE8FC" opacity=".2" cx="17.5" cy="17.5" r="17.5"/>
        <path d="m25.854 24.439-3.253-3.253A6.954 6.954 0 0 0 24 17a7 7 0 1 0-7 7 6.959 6.959 0 0 0 4.187-1.399l3.253 3.253a.498.498 0 0 0 .353.146h.414a.502.502 0 0 0 .354-.146l.293-.293a.502.502 0 0 0 .146-.354v-.414a.502.502 0 0 0-.146-.354zM17 22a5 5 0 0 1-5-5 5 5 0 0 1 5-5 5 5 0 0 1 5 5 5 5 0 0 1-5 5z" fill="#FFF" fill-rule="nonzero"/>
    </g>
</svg>
