<svg xmlns="http://www.w3.org/2000/svg" viewBox="0 0 25 25"><path fill="#546F86" fill-rule="evenodd" d="M0 12.5C0 5.6 5.6 0 12.5 0S25 5.6 25 12.5 19.4 25 12.5 25 0 19.4 0 12.5zm19.531 8.53a21.25 21.25 0 00-2.518-.576c-1.036-.188-1.892-1.34-2.366-2.475 1.11-.718 2.011-2.01 2.779-3.734.348-.263.663-.787.802-1.388.203-.863-.033-1.564-.528-1.563-.004-.001-.008 0-.063.003a.275.275 0 00-.061.01c.17-1.128.282-2.21.076-3.268a2.812 2.812 0 00-.167-.6c-.394-1.348-2.102-2.954-4.984-2.954-2.883 0-4.59 1.606-4.986 2.955-.08.206-.136.407-.165.599-.207 1.058-.095 2.14.074 3.268a.347.347 0 00-.061-.01c-.045-.003-.055-.004-.063-.003-.493-.001-.73.7-.527 1.563.14.601.455 1.125.802 1.388.769 1.725 1.668 3.016 2.778 3.732-.474 1.138-1.331 2.289-2.366 2.477-.841.138-1.716.339-2.52.576 1.912 1.504 4.362 2.407 7.033 2.407 2.67 0 5.12-.903 7.031-2.407z"/></svg>