<svg xmlns="http://www.w3.org/2000/svg" width="42" height="39" viewBox="0 0 42 39">
    <g fill="none" fill-rule="evenodd">
        <g fill-rule="nonzero">
            <g>
                <path fill="#FFF" stroke="#051724" stroke-width=".8" d="M4.71 25.768h3.041c.197 0 .356.16.356.356v3.13c0 1.259.761 2.363 1.941 2.813.357.136.727.203 1.091.203.838 0 1.651-.35 2.24-1.003l.691-.768h7.435c.097 0 .194.044.258.114l4.848 5.385c.587.653 1.4 1.002 2.24 1.002.366 0 .738-.066 1.097-.204 1.18-.451 1.944-1.555 1.944-2.813v-3.13c0-.199.156-.354.357-.354h3.04c2.598 0 4.711-2.106 4.711-4.694V9.428c0-2.59-2.113-4.695-4.71-4.695h-.048v-.039C35.242 2.106 33.13 0 30.53 0H4.71C2.114 0 0 2.106 0 4.694v16.38c0 2.588 2.113 4.694 4.71 4.694zm30.532-4.694V7.39h.047c1.128 0 2.044.915 2.044 2.038v16.377c0 1.123-.916 2.036-2.044 2.036h-3.04c-1.667 0-3.024 1.351-3.024 3.012v3.13c0 .161-.078.273-.231.331-.106.043-.264.06-.399-.09l-4.851-5.39c-.572-.63-1.389-.993-2.239-.993h-5.043l1.76-1.955c.067-.075.163-.118.265-.118H30.53c2.599 0 4.712-2.106 4.712-4.694zM2.667 4.694c0-1.123.916-2.037 2.044-2.037H30.53c1.128 0 2.046.914 2.046 2.037v16.38c0 1.124-.918 2.037-2.046 2.037H18.487c-.857 0-1.677.365-2.25 1l-4.842 5.38c-.107.121-.243.154-.392.094-.153-.057-.23-.168-.23-.33v-3.131c0-1.661-1.355-3.013-3.022-3.013h-3.04c-1.128 0-2.044-.913-2.044-2.037V4.694z" transform="translate(-50.000000, -183.000000) translate(51.000000, 184.000000)"/>
                <path fill="#EC3E60" d="M12.327 14.213h3.96v3.946c0 .734.597 1.328 1.334 1.328.737 0 1.333-.594 1.333-1.328v-3.946h3.96c.737 0 1.333-.594 1.333-1.328 0-.735-.596-1.329-1.333-1.329h-3.96V7.61c0-.734-.596-1.328-1.333-1.328s-1.333.594-1.333 1.328v3.947h-3.961c-.737 0-1.333.594-1.333 1.329 0 .734.596 1.328 1.333 1.328z" transform="translate(-50.000000, -183.000000) translate(51.000000, 184.000000)"/>
            </g>
        </g>
    </g>
</svg>
