<svg width="35" height="35" viewBox="0 0 35 35" xmlns="http://www.w3.org/2000/svg">
    <g fill="none" fill-rule="evenodd">
        <circle fill="#DAE8FC" opacity=".2" cx="17.5" cy="17.5" r="17.5"/>
        <g fill="#FFF" fill-rule="nonzero">
            <path d="M17.28 15.776c2.196 0 3.96-1.728 3.96-3.816 0-2.124-1.764-3.816-3.96-3.816-2.196 0-3.96 1.728-3.96 3.816s1.764 3.816 3.96 3.816zM19.656 16.568c-.72.36-1.512.54-2.376.54-.864 0-1.656-.216-2.376-.54-3.348.936-5.796 3.816-5.796 7.2 0 .36.288.684.684.684h14.94c.36 0 .684-.288.684-.684.036-3.384-2.412-6.264-5.76-7.2zm.756 5.256h-.936v.9a.684.684 0 1 1-1.368 0v-.9h-.936a.684.684 0 0 1-.684-.684c0-.396.288-.684.684-.684h.936v-.9a.684.684 0 1 1 1.368 0v.9h.936a.684.684 0 1 1 0 1.368z"/>
        </g>
    </g>
</svg>
