<svg xmlns="http://www.w3.org/2000/svg" width="54" height="44" viewBox="0 0 54 44">
    <g fill="none" fill-rule="evenodd">
        <g stroke-width=".5">
            <g>
                <path fill="#FFF" fill-rule="nonzero" stroke="#FFF" d="M44.67 20.806H21.376c-3.73 0-6.811 2.816-7.265 6.442H1.836v-13.63c0-.509-.411-.922-.918-.922-.507 0-.918.413-.918.922v27.46c0 .509.411.922.918.922.507 0 .918-.413.918-.922v-5.375h48.326v5.375c0 .509.41.922.918.922s.918-.413.918-.922v-12.89l.002-.019c0-4.06-3.289-7.363-7.33-7.363zM25.08 33.858H1.836v-4.766H25.08v4.766zm0-6.61h-9.114c.439-2.605 2.694-4.598 5.411-4.598h3.704v4.597h-.001zm25.082.921v5.69H26.916V22.65H44.67c3.025 0 5.487 2.47 5.494 5.507l-.002.011zM8.988 24.683c2.413 0 4.375-1.972 4.375-4.395 0-2.423-1.962-4.394-4.375-4.394-2.41 0-4.373 1.97-4.373 4.394 0 2.423 1.962 4.395 4.373 4.395zm0-6.944c1.4 0 2.54 1.143 2.54 2.549s-1.14 2.55-2.54 2.55c-1.398 0-2.537-1.144-2.537-2.55s1.139-2.55 2.537-2.55z" transform="translate(-44.000000, -44.000000) translate(45.000000, 45.000000)"/>
                <path fill="#34A9FF" stroke="#34A9FF" d="M21.19 6.672h3.89v3.913c0 .51.41.923.918.923.507 0 .918-.413.918-.923V6.672h3.89c.506 0 .917-.412.917-.922 0-.509-.41-.922-.918-.922h-3.89V.922c0-.509-.41-.922-.917-.922-.507 0-.918.413-.918.922v3.906h-3.89c-.508 0-.918.413-.918.922 0 .51.41.922.918.922z" transform="translate(-44.000000, -44.000000) translate(45.000000, 45.000000)"/>
            </g>
        </g>
    </g>
</svg>
