<svg xmlns="http://www.w3.org/2000/svg" width="54" height="54" viewBox="0 0 54 54">
    <g fill="none" fill-rule="evenodd">
        <g fill-rule="nonzero">
            <g>
                <path fill="#FFF" d="M19.687 40.429c-.348 0-.682.142-.928.397-.246.254-.384.6-.384.96 0 4.568-4.517 9.5-11.813 9.5-2.173-.003-3.935-1.824-3.937-4.072V36.357c0-10.067 7.166-17.643 11.812-17.643 2.174.003 3.936 1.824 3.938 4.072 0 .75.588 1.357 1.312 1.357.725 0 1.313-.608 1.313-1.357-.004-3.746-2.94-6.782-6.563-6.786C8.624 16 0 24.548 0 36.357v10.857C.004 50.96 2.94 53.996 6.562 54 15.48 54 21 47.66 21 41.786c0-.36-.138-.706-.384-.96-.246-.255-.58-.398-.929-.397z" transform="translate(-159.000000, -155.000000) translate(159.000000, 155.000000)"/>
                <path fill="#34A9FF" d="M38.511 34.41c.331.085.627.167.939.25.75 1.03.58 1.885.12 3.307-.584 1.803-1.382 4.27 1.8 6.749.378.294.885.366 1.33.187.446-.18.761-.581.828-1.055.067-.474-.124-.947-.503-1.242-1.703-1.324-1.434-2.159-.897-3.818.373-.982.552-2.027.524-3.077 2.356 1.018 3.66 2.507 3.66 5.775 0 .74.602 1.339 1.344 1.339.742 0 1.344-.6 1.344-1.339 0-7.17-5.219-8.497-9.824-9.668-.667-.17-1.329-.339-1.977-.522.59-1.26 1.728-2.182 3.088-2.501 1.407-.222 2.82.363 3.657 1.512.307.375.794.555 1.272.471.479-.083.875-.417 1.036-.874.161-.456.062-.964-.258-1.327-1.465-1.88-3.849-2.806-6.205-2.412-2.3.512-4.21 2.1-5.126 4.262-3.327-1.409-5.82-3.936-5.82-10.353V1.338C28.844.6 28.244 0 27.5 0c-.742 0-1.344.6-1.344 1.338v18.736c0 6.417-2.492 8.944-5.82 10.353-.916-2.162-2.826-3.75-5.126-4.261-2.355-.392-4.737.533-6.204 2.41-.32.364-.42.872-.258 1.328.16.457.557.791 1.035.875.479.083.965-.097 1.273-.472.838-1.147 2.25-1.731 3.657-1.512 1.36.32 2.497 1.24 3.088 2.501-.649.183-1.31.352-1.978.522C11.22 32.988 6 34.317 6 41.486c0 .74.602 1.339 1.344 1.339.742 0 1.343-.6 1.343-1.339 0-3.268 1.305-4.757 3.66-5.775-.027 1.05.152 2.095.525 3.077.537 1.66.806 2.493-.897 3.818-.585.456-.689 1.297-.231 1.88.457.582 1.302.685 1.887.23 3.18-2.478 2.383-4.946 1.799-6.75-.46-1.42-.63-2.276.12-3.306.312-.083.608-.165.939-.25 4.021-1.022 8.749-2.245 11.011-7.184 2.262 4.94 6.99 6.162 11.011 7.185z" transform="translate(-159.000000, -155.000000) translate(159.000000, 155.000000)"/>
                <path fill="#FFF" d="M39.563 16c-3.623.004-6.559 3.04-6.563 6.786 0 .75.588 1.357 1.313 1.357.724 0 1.312-.608 1.312-1.357.002-2.248 1.764-4.07 3.938-4.072 4.646 0 11.812 7.576 11.812 17.643v10.857c-.002 2.248-1.764 4.07-3.938 4.072-7.295 0-11.812-4.932-11.812-9.5 0-.75-.588-1.357-1.313-1.357-.724 0-1.312.607-1.312 1.357C33 47.66 38.52 54 47.438 54c3.622-.004 6.558-3.04 6.562-6.786V36.357C54 24.548 45.376 16 39.562 16z" transform="translate(-159.000000, -155.000000) translate(159.000000, 155.000000)"/>
            </g>
        </g>
    </g>
</svg>
