<svg xmlns="http://www.w3.org/2000/svg" viewBox="0 0 62 62"><g fill="none" fill-rule="evenodd"><path fill="#FFF" fill-rule="nonzero" d="M17.736 47.455h26.376a.691.691 0 00.636-.691v-5.53a9.51 9.51 0 00-9.497-9.51H26.54c-5.223.036-9.44 4.284-9.44 9.509v5.53a.691.691 0 00.636.691zm13.188-12.013l-2.917-2.336h5.834l-2.917 2.336zm-12.442 5.792a8.142 8.142 0 013.263-6.51 8.29 8.29 0 014.147-1.563l4.382 3.498v6.566a.691.691 0 001.383.001v-6.567l4.382-3.498a8.297 8.297 0 014.147 1.562 8.147 8.147 0 013.18 6.511v4.839H18.482v-4.839zm12.442-10.948a8.213 8.213 0 008.198-8.198v-3.76a8.198 8.198 0 00-16.396 0v3.76a8.213 8.213 0 008.198 8.198zm0-18.773a6.8 6.8 0 016.76 6.317 7.557 7.557 0 00-2.005-.207 8.744 8.744 0 00-2.875.636 8.29 8.29 0 01-2.198.539 6.831 6.831 0 01-2.696-.332 5.97 5.97 0 00.25-1.631c0-.379-.3-.69-.678-.705a.691.691 0 00-.705.677 4.15 4.15 0 01-1.244 2.765 3.585 3.585 0 01-1.48.843v-2.087a6.818 6.818 0 016.871-6.815zM24.109 21.88a5.277 5.277 0 002.433-1.258c.288-.279.543-.59.76-.926a8.72 8.72 0 002.765.497h.636a9.086 9.086 0 002.557-.622 7.09 7.09 0 012.46-.553 6.62 6.62 0 012.005.25v2.833a6.815 6.815 0 11-13.63 0l.014-.221z"/><path fill="#E24D91" d="M39.564 40.46c0 .382-.31.691-.691.691h-1.037v1.037a.691.691 0 01-1.382.001V41.15h-1.037a.69.69 0 11-.001-1.382h1.038v-1.037a.69.69 0 011.382 0v1.037h1.037c.382 0 .691.31.691.691z"/><g stroke="#FFF" stroke-width="2.43"><circle cx="30.78" cy="30.78" r="29.565"/><path stroke-linecap="square" d="M10.125 51.435l42.12-39.69"/></g></g></svg>