<svg xmlns="http://www.w3.org/2000/svg" viewBox="0 0 54 54"><g fill="none" fill-rule="evenodd" stroke-linecap="round" stroke-linejoin="round" stroke-width="2.2"><path stroke="#FFF" d="M27.3 41.602v11m6.05-3.302a.55.55 0 110 1.1.55.55 0 010-1.1m0-6.6a.55.55 0 110 1.1.55.55 0 010-1.1"/><path stroke="#10CCCB" d="M27.3 10.802v-4.4m-2.2 2.2h4.4"/><path stroke="#FFF" d="M52.6 52.6v-2.2a8.802 8.802 0 00-5.72-8.239L36.1 38.542m-17.6 0L7.72 42.163A8.8 8.8 0 002 50.4v2.2"/><path stroke="#10CCCB" d="M14.1 17.858a34.141 34.141 0 0126.4 0"/><path stroke="#FFF" d="M24 29.5a4.785 4.785 0 006.6 0m-5.5-8.8a2.397 2.397 0 00-2.2-1.1 2.397 2.397 0 00-2.2 1.1m13.2 0a2.397 2.397 0 00-2.2-1.1 2.397 2.397 0 00-2.2 1.1m-16.005 3.458a11.32 11.32 0 01-4.299 6.924 1.1 1.1 0 00-.09 1.828 9.739 9.739 0 006.413 2.05M41.16 24.03a11.439 11.439 0 004.334 7.052 1.1 1.1 0 01.088 1.828 9.739 9.739 0 01-6.413 2.05"/><path stroke="#FFF" d="M40.5 19.624V7.744a4.4 4.4 0 00-3.08-4.2 34.13 34.13 0 00-20.218 0A4.402 4.402 0 0014.1 7.738v11.88c-1.861 1.003-1.258 5.262 1.1 6.331a2.201 2.201 0 011.258 1.641c.97 5.828 7.793 9.61 10.842 9.61h0c3.051 0 9.874-3.788 10.846-9.605.12-.722.59-1.337 1.256-1.641 2.354-1.074 2.957-5.322 1.098-6.33z"/></g></svg>