<svg width="32" height="43" viewBox="0 0 32 43" xmlns="http://www.w3.org/2000/svg">
    <g fill="none" fill-rule="evenodd">
        <path d="M.736 43h30.528a.798.798 0 0 0 .736-.796v-6.37c0-6.046-4.919-10.949-10.992-10.958h-10.08C4.88 24.92 0 29.813 0 35.833v6.37A.798.798 0 0 0 .736 43zM16 29.16l-3.376-2.691h6.752L16 29.16zM1.6 35.833a9.366 9.366 0 0 1 3.776-7.5 9.627 9.627 0 0 1 4.8-1.8l5.072 4.029v7.565c0 .44.358.796.8.796.442 0 .8-.357.8-.796v-7.565l5.072-4.03a9.627 9.627 0 0 1 4.8 1.8 9.366 9.366 0 0 1 3.68 7.501v5.574H1.6v-5.574zM16 23.22c5.236-.009 9.48-4.232 9.488-9.444V9.444C25.488 4.228 21.24 0 16 0c-5.24 0-9.488 4.228-9.488 9.444v4.332c.009 5.212 4.252 9.435 9.488 9.444zm0-21.627c4.12.014 7.531 3.188 7.824 7.278a8.775 8.775 0 0 0-2.32-.24 10.184 10.184 0 0 0-3.328.733 9.637 9.637 0 0 1-2.544.622 7.938 7.938 0 0 1-3.12-.383c.183-.61.28-1.242.288-1.879a.814.814 0 0 0-.784-.812.802.802 0 0 0-.816.78 4.768 4.768 0 0 1-1.44 3.185 4.165 4.165 0 0 1-1.712.972V9.444c0-2.093.84-4.1 2.333-5.574A7.907 7.907 0 0 1 16 1.593zM8.112 13.537a6.106 6.106 0 0 0 2.816-1.45c.334-.32.629-.678.88-1.066 1.029.361 2.11.555 3.2.573h.736a10.584 10.584 0 0 0 2.96-.717 8.24 8.24 0 0 1 2.848-.637 7.73 7.73 0 0 1 2.32.287v3.265c0 4.336-3.532 7.851-7.888 7.851s-7.888-3.515-7.888-7.851l.016-.255z" fill="#FFF" fill-rule="nonzero"/>
        <path d="M26 34.941c0 .44-.358.797-.8.797H24v1.194c0 .44-.358.797-.8.797a.798.798 0 0 1-.8-.797v-1.194h-1.2a.798.798 0 0 1-.8-.797c0-.44.358-.796.8-.796h1.2v-1.194c0-.44.358-.797.8-.797.442 0 .8.357.8.797v1.194h1.2c.442 0 .8.357.8.796z" fill="#EC215A"/>
    </g>
</svg>
