<svg xmlns="http://www.w3.org/2000/svg" viewBox="0 0 39 53"><g fill="none" fill-rule="evenodd"><path fill="#FFF" fill-rule="nonzero" d="M.883 52.16h36.634a.96.96 0 00.883-.96v-7.68c0-7.288-5.902-13.199-13.19-13.21H13.114C5.856 30.363 0 36.262 0 43.52v7.68a.96.96 0 00.883.96zM19.2 35.475l-4.051-3.245h8.102L19.2 35.475zM1.92 43.52a11.308 11.308 0 014.531-9.043 11.53 11.53 0 015.76-2.17l6.087 4.858v9.12a.96.96 0 001.92 0v-9.12l6.086-4.858a11.53 11.53 0 015.76 2.17 11.31 11.31 0 014.416 9.043v6.72H1.92v-6.72zM19.2 28.314c6.284-.011 11.375-5.102 11.386-11.386v-5.222C30.586 5.418 25.488.32 19.2.32 12.912.32 7.814 5.418 7.814 11.706v5.222c.011 6.284 5.102 11.375 11.386 11.386zm0-26.074a9.448 9.448 0 019.389 8.774 10.518 10.518 0 00-2.784-.288 12.161 12.161 0 00-3.994.884c-.978.388-2.006.64-3.053.748a9.492 9.492 0 01-3.744-.46c.22-.736.337-1.498.346-2.266a.98.98 0 00-.94-.98.96.96 0 00-.98.942 5.757 5.757 0 01-1.728 3.84 4.993 4.993 0 01-2.054 1.17v-2.898a9.458 9.458 0 012.8-6.72A9.46 9.46 0 0119.2 2.24zm-9.466 14.4a7.319 7.319 0 003.38-1.747 7.29 7.29 0 001.056-1.287c1.234.436 2.53.67 3.84.692h.883a12.68 12.68 0 003.552-.864 9.809 9.809 0 013.417-.768c.94-.028 1.88.089 2.784.345v3.936a9.466 9.466 0 11-18.931 0l.02-.307z"/><path fill="#EC215A" d="M31.2 42.445c0 .53-.43.96-.96.96H28.8v1.44a.96.96 0 01-1.92 0v-1.44h-1.44a.96.96 0 010-1.92h1.44v-1.44a.96.96 0 011.92 0v1.44h1.44c.53 0 .96.43.96.96z"/></g></svg>