<svg xmlns="http://www.w3.org/2000/svg" width="35" height="35" viewBox="0 0 35 35">
    <g fill="none" fill-rule="evenodd">
        <g>
            <g transform="translate(-277 -51) translate(277 51)">
                <circle cx="17.5" cy="17.5" r="17.5" fill="#DAE8FC" opacity=".2"/>
                <g fill="#FFF">
                    <path d="M6.5 0C2.91 0 0 2.981 0 6.66c0 1.638.493 3.218 1.94 5.092C3.197 13.382 6.5 17 6.5 17s2.89-3.446 4.299-5.248C12.207 9.949 13 8.273 13 6.659 13 2.981 10.09 0 6.5 0zm3.736 7.718c0 .146-.131.261-.308.261H7.743v2.242c0 .181-.11.317-.253.317H5.503c-.143 0-.252-.136-.252-.317V7.979H3.065c-.177 0-.34-.115-.34-.261v-2.04c0-.146.163-.258.34-.258H5.25V3.175c0-.181.11-.348.252-.348H7.49c.143 0 .253.167.253.348V5.42h2.185c.177 0 .308.112.308.258v2.04z" transform="translate(11 10)"/>
                </g>
            </g>
        </g>
    </g>
</svg>
