<svg xmlns="http://www.w3.org/2000/svg" width="58" height="42" viewBox="0 0 58 42">
    <g fill="none" fill-rule="evenodd">
        <g stroke-width="1.906">
            <g transform="translate(-182 -45) translate(183 46)">
                <path stroke="#FFF" d="M8.818 33.919v-2.36c0-.84.686-1.526 1.525-1.526h34.975c.838 0 1.525.687 1.525 1.525v2.361"/>
                <circle cx="8.815" cy="36.891" r="2.802" stroke="#FFF"/>
                <circle cx="46.848" cy="36.891" r="2.802" stroke="#FFF"/>
                <path stroke="#FFF" stroke-linecap="round" d="M24.139 24.456L16.041 29.853M39.674 14.098L28.142 21.788"/>
                <path stroke="#8577D1" d="M53.043 13.329V10.3c0-.588-.526-1.249-1.257-1.249H17.108L4.741.906C4.424.63 3.94.667 3.666.984L1.7 3.634c-.274.319-.238.802.079 1.077l13.815 9.18"/>
                <path stroke="#FFF" d="M15.862 14.069l24.17 16.059"/>
                <path stroke="#FFF" stroke-linecap="round" d="M0 13.923L55.663 13.923"/>
            </g>
        </g>
    </g>
</svg>
