<svg xmlns="http://www.w3.org/2000/svg" viewBox="0 0 60 61"><g fill="none" fill-rule="evenodd" stroke-linecap="round" stroke-linejoin="round"><g stroke="#FFF" stroke-width="2" transform="matrix(-1 0 0 1 59 1)"><path d="M4.395 24.004h48.21A4.395 4.395 0 0157 28.399v1.647a1.958 1.958 0 01-1.958 1.958H1.958A1.958 1.958 0 010 30.046V28.4a4.395 4.395 0 014.395-4.395zm4.605 8h39c0 2.21-1.79 4-4 4H13c-2.21 0-4-1.79-4-4h0zm30 4l-24 18"/><circle cx="12" cy="56.004" r="3"/><path d="M17 36.004l24 18"/><circle cx="44" cy="56.004" r="3"/><path d="M9 18.004h12a3 3 0 013 3h0a3 3 0 01-3 3H6v-3a3 3 0 013-3zm34.087-2.214A9 9 0 0056.218 3.627M53.847 1.42a9.001 9.001 0 00-11.008 1.014 9.001 9.001 0 00-1.719 10.92"/></g><path d="M14.52 10.253h-9m3.1-3.693l-3.117 3.804L8.62 14" stroke="#10CCCB" stroke-width="1.672"/></g></svg>