<svg xmlns="http://www.w3.org/2000/svg" viewBox="0 0 41 58"><g fill="none"><path fill="#FFF" d="M37.2 57.6H3.6C1.56 57.6 0 56.04 0 54V10.8c0-2.04 1.56-3.6 3.6-3.6h4.8c.72 0 1.2.48 1.2 1.2s-.48 1.2-1.2 1.2H3.6c-.72 0-1.2.48-1.2 1.2V54c0 .72.48 1.2 1.2 1.2h33.6c.72 0 1.2-.48 1.2-1.2V10.8c0-.72-.48-1.2-1.2-1.2h-4.8c-.72 0-1.2-.48-1.2-1.2s.48-1.2 1.2-1.2h4.8c2.04 0 3.6 1.56 3.6 3.6V54c0 2.04-1.56 3.6-3.6 3.6z"/><path fill="#FFF" d="M33.6 12H7.2c-.36 0-.84-.24-1.08-.6a1.09 1.09 0 010-1.2L9.72 3c.24-.36.6-.6 1.08-.6h6.24C17.52.96 18.84 0 20.4 0c1.56 0 2.88.96 3.36 2.4H30c.48 0 .84.24 1.08.72l3.6 7.2c.24.36.12.84 0 1.2-.24.24-.72.48-1.08.48zM9.12 9.6h22.56l-2.4-4.8H22.8c-.72 0-1.2-.48-1.2-1.2s-.48-1.2-1.2-1.2-1.2.48-1.2 1.2-.48 1.2-1.2 1.2h-6.48l-2.4 4.8z"/><path fill="#10CCCB" d="M21.6 24h-.24c-.36-.12-.72-.36-.84-.6l-1.68-3.36-1.2 1.2c-.24.24-.48.36-.84.36h-2.4c-.72 0-1.2-.48-1.2-1.2s.48-1.2 1.2-1.2h1.92l2.04-2.04c.24-.24.72-.36 1.08-.36.36.12.72.36.84.6l1.68 3.36 1.2-1.2c.24-.24.48-.36.84-.36h2.4c.72 0 1.2.48 1.2 1.2s-.48 1.2-1.2 1.2h-1.92l-2.04 2.04c-.24.24-.48.36-.84.36zm13.2 4.8H6c-.72 0-1.2-.48-1.2-1.2s.48-1.2 1.2-1.2h28.8c.72 0 1.2.48 1.2 1.2s-.48 1.2-1.2 1.2zm0 6H6c-.72 0-1.2-.48-1.2-1.2s.48-1.2 1.2-1.2h28.8c.72 0 1.2.48 1.2 1.2s-.48 1.2-1.2 1.2z"/><path fill="#FFF" d="M34.8 40.8H6c-.72 0-1.2-.48-1.2-1.2s.48-1.2 1.2-1.2h28.8c.72 0 1.2.48 1.2 1.2s-.48 1.2-1.2 1.2zm-7.2 6H6c-.72 0-1.2-.48-1.2-1.2s.48-1.2 1.2-1.2h21.6c.72 0 1.2.48 1.2 1.2s-.48 1.2-1.2 1.2z"/></g></svg>