<svg xmlns="http://www.w3.org/2000/svg" width="41" height="29" viewBox="0 0 41 29">
    <g fill="none" fill-rule="evenodd">
        <g fill="#7B92AB" fill-rule="nonzero" stroke="#022339" stroke-width=".5">
            <path d="M1853.551 552.02c2.075.04 4.005 1.647 4.373 3.71.358 2.007-.833 4.19-2.729 4.965-2.093.856-4.766-.157-5.759-2.217-1.026-2.131-.028-5.015 2.154-6.036.576-.27 1.211-.41 1.845-.422h.116zm18.005 0c2.074.04 4.005 1.647 4.372 3.71.359 2.007-.832 4.19-2.728 4.965-2.093.856-4.766-.157-5.759-2.217-1.027-2.133-.022-5.018 2.154-6.036.576-.27 1.21-.41 1.845-.422h.116zm-.078 3.002c-1.148.023-1.968 1.658-1.028 2.577.773.755 2.367.322 2.534-.864.118-.85-.566-1.717-1.506-1.713h0zm-18.005 0c-1.148.023-1.968 1.658-1.028 2.577.771.753 2.367.322 2.534-.864.118-.85-.563-1.719-1.506-1.713h0zm2.558-8.987l-7.078-.021c-2.575-.024-5.028-1.87-5.734-4.363-.566-1.99-.014-4.256 1.404-5.761 1.108-1.179 2.697-1.874 4.33-1.889h2.1c1.935.018 3.843.808 5.226 2.166l.836.837h20.39c2.39.016 4.555 2.172 4.494 4.617-.057 2.288-2.046 4.348-4.443 4.393-2.871.018-5.74.027-8.61.031l-3.914 2.872 1.352.99c.766.592.763 1.93-.07 2.472-.508.329-1.21.297-1.705-.05l-2.113-1.55-2.114 1.55c-.735.514-1.885.246-2.26-.605-.273-.618-.062-1.394.486-1.816l1.35-.99-3.928-2.883h0zm5.088.01l1.377 1.01 1.372-1.008-2.75-.002h0zm7.696-2.992c2.901-.009 5.802-.025 8.703-.043 1.122-.021 1.958-1.602 1.068-2.537-.28-.293-.678-.463-1.092-.466h-21c-.115-.004-.145-.003-.261-.022-.215-.04-.421-.123-.6-.25-.094-.067-.114-.09-.2-.167-.627-.626-1.204-1.317-1.906-1.791-.723-.49-1.587-.758-2.465-.772-.688-.007-1.378-.001-2.068-.001-1.857.006-3.437 2.028-2.874 3.879.366 1.204 1.539 2.107 2.833 2.127 2.387.022 4.775.037 7.163.046.098-.024.201-.039.312-.045.048-.001.096 0 .146.002.118.009.22.02.32.046 3.752.012 7.504.01 11.257-.003.132-.031.27-.046.412-.045.087.006.171.021.252.042h0z" transform="translate(-1842.000000, -533.000000)"/>
        </g>
    </g>
</svg>
