<svg width="35" height="35" viewBox="0 0 35 35" xmlns="http://www.w3.org/2000/svg">
    <g fill="none" fill-rule="evenodd">
        <circle fill="#DAE8FC" opacity=".2" cx="17.5" cy="17.5" r="17.5"/>
        <path d="M21.9 9a2.09 2.09 0 0 1 2.096 1.955l.004.122v13.846c0 1.106-.874 2.01-1.977 2.073L21.9 27h-9.8a2.09 2.09 0 0 1-2.096-1.955L10 24.923V11.077c0-1.106.874-2.01 1.977-2.073L12.1 9h9.8zm-1.663 10.536a.706.706 0 0 0-.924.044l-.06.064-2.399 2.966-1.566-1.032-.07-.041a.705.705 0 0 0-.9.233.687.687 0 0 0 .128.911l.066.049 2.1 1.384.071.042a.706.706 0 0 0 .803-.12l.06-.065 2.8-3.462.051-.07a.687.687 0 0 0-.16-.903zm.263-2.92h-7l-.082.004a.695.695 0 0 0-.618.688c0 .355.27.647.618.687L13.5 18h7l.082-.005a.695.695 0 0 0 .618-.687.695.695 0 0 0-.618-.688l-.082-.005zm0-2.078h-7l-.082.005a.695.695 0 0 0-.618.688c0 .355.27.647.618.687l.082.005h7l.082-.005a.695.695 0 0 0 .618-.687.695.695 0 0 0-.618-.688l-.082-.005zm0-2.076h-7l-.082.004a.695.695 0 0 0-.618.688c0 .355.27.648.618.687l.082.005h7l.082-.005a.695.695 0 0 0 .618-.687.695.695 0 0 0-.618-.688l-.082-.004z" fill="#FFF" fill-rule="nonzero"/>
    </g>
</svg>
