<svg width="35" height="35" viewBox="0 0 35 35" xmlns="http://www.w3.org/2000/svg">
    <g fill="none" fill-rule="evenodd">
        <circle fill="#DAE8FC" opacity=".2" cx="17.5" cy="17.5" r="17.5"/>
        <path d="M19.997 10a.597.597 0 1 1 0 1.193h-.829v.786c3.554.599 6.283 3.884 6.335 7.867h.472c.566 0 1.025.459 1.025 1.025v.104c0 .566-.459 1.025-1.025 1.025h-15.95A1.025 1.025 0 0 1 9 20.975v-.104c0-.566.459-1.025 1.025-1.025h.472l.003-.14c.117-4.03 2.974-7.316 6.631-7.77v-.743h-.829a.597.597 0 1 1 0-1.193z" fill="#FFF" fill-rule="nonzero"/>
    </g>
</svg>
