<svg width="35" height="35" viewBox="0 0 35 35" xmlns="http://www.w3.org/2000/svg">
    <g fill="none" fill-rule="evenodd">
        <circle fill="#DAE8FC" opacity=".2" cx="17.5" cy="17.5" r="17.5"/>
        <g fill="#FFF" fill-rule="nonzero">
            <path d="M22.421 15.238c0 .97-.236 1.907-.648 2.714l-.53-.937-.266-.387a4.27 4.27 0 0 0 .236-1.39c0-2.23-1.65-4.071-3.713-4.071s-3.713 1.81-3.713 4.071c0 .485.089.97.236 1.39a.88.88 0 0 0-.265.387l-.53.937a5.897 5.897 0 0 1-.65-2.714c0-3.005 2.211-5.428 4.951-5.428 2.74 0 4.892 2.455 4.892 5.428z"/>
            <path d="M26 12.615v9.29c0 .3-.237.571-.562.571h-.71l-2.601-4.209a5.61 5.61 0 0 0 .887-3.036c0-3.097-2.484-5.592-5.5-5.592-3.015 0-5.498 2.525-5.498 5.592a5.61 5.61 0 0 0 .887 3.036l-2.602 4.21h-.74A.566.566 0 0 1 9 21.904v-9.32c0-.962.503-1.864 1.3-2.375 2.455-1.563 8.072-4.089 14.429.03.798.511 1.271 1.413 1.271 2.375z"/>
            <path d="m24.094 23.335-3.573-5.751a1.153 1.153 0 0 0-.958-.536h-4.126c-.377 0-.755.208-.958.536l-3.573 5.75c1.946.627 4.183 1.014 6.594 1.103 2.382-.089 4.648-.476 6.594-1.102z"/>
            <path d="M17.5 25.093c-2.411-.09-4.735-.477-6.71-1.132v1.668c0 .715.551 1.282 1.22 1.282L17.5 27l5.49-.09c.698 0 1.22-.595 1.22-1.28v-1.67c-1.975.656-4.299 1.044-6.71 1.133z"/>
        </g>
    </g>
</svg>
