<svg width="35" height="35" viewBox="0 0 35 35" xmlns="http://www.w3.org/2000/svg">
    <g fill="none" fill-rule="evenodd">
        <circle fill="#DAE8FC" opacity=".2" cx="17.5" cy="17.5" r="17.5"/>
        <path d="M29.292 20.216a.751.751 0 0 0 .028-1.006l-1.25-1.461a.5.5 0 0 0-.742-.02c-.366.382-.753.743-1.16 1.082a.75.75 0 0 1-.96-1.154 12.5 12.5 0 0 0 1.036-.965.8.8 0 0 1 .114-.1.5.5 0 0 0 .097-.737l-1.491-1.743a.5.5 0 0 0-.73-.034 9.984 9.984 0 0 1-2.3 1.625.75.75 0 0 1-.674-1.338 10.4 10.4 0 0 0 2.038-1.447.5.5 0 0 0 .048-.7L20.82 9.264a.75.75 0 0 0-1.112-.032 3.44 3.44 0 0 1-1.958.413 3.44 3.44 0 0 1-1.958-.413.75.75 0 0 0-1.112.032l-2.521 2.949a.5.5 0 0 0 .05.7c.392.351.803.68 1.232.985a.749.749 0 1 1-.828 1.25c-.477-.322-.928-.681-1.348-1.074a.5.5 0 0 0-.727.036L9.05 15.857a.5.5 0 0 0 .1.738c.04.03.079.063.114.1a12.5 12.5 0 0 0 1.035.965.75.75 0 0 1-.96 1.154c-.406-.339-.794-.7-1.16-1.082a.5.5 0 0 0-.742.02L6.18 19.21a.751.751 0 0 0 .028 1.006 15.835 15.835 0 0 0 23.084 0zM16.03 21.753a.742.742 0 0 1-.105-.007 13.047 13.047 0 0 1-3.5-1.01.75.75 0 0 1 .61-1.368c.987.44 2.03.74 3.1.892a.75.75 0 0 1-.1 1.493h-.005zm-.444-5.3a.75.75 0 0 1 .35-1.46 9.345 9.345 0 0 0 1.834.216c.295 0 .59-.018.882-.053a.76.76 0 0 1 .833.657.75.75 0 0 1-.656.834 9.1 9.1 0 0 1-1.056.062 7.228 7.228 0 0 1-2.187-.261v.005zm5.413 6.3a2.25 2.25 0 1 1 0-4.496 2.25 2.25 0 0 1 0 4.494v.002z" fill="#FFF" fill-rule="nonzero"/>
    </g>
</svg>
