<svg width="35" height="35" viewBox="0 0 35 35" xmlns="http://www.w3.org/2000/svg">
    <g fill="none" fill-rule="evenodd">
        <circle fill="#DAE8FC" opacity=".2" cx="17.5" cy="17.5" r="17.5"/>
        <g fill="#FFF" fill-rule="nonzero">
            <path d="M10.99 10.99a3.367 3.367 0 0 0 0 4.77L12.23 17 17 12.23l-1.24-1.24c-1.32-1.32-3.463-1.32-4.77 0zM10.934 24.054a3.178 3.178 0 0 0 4.5 0l2.06-2.058 2.072 2.07a3.178 3.178 0 0 0 4.5 0 3.172 3.172 0 0 0 0-4.496l-2.072-2.07 2.072-2.07a3.172 3.172 0 0 0 0-4.496 3.178 3.178 0 0 0-4.5 0l-8.632 8.636a3.157 3.157 0 0 0 0 4.484zm6.56-3.861-.903-.902.903-.902.902.902-.902.902zm2.695-2.693-.903.902-.89-.902.903-.902.89.902zm-2.695-2.693.902.902-.902.89-.903-.903.903-.889zM15.7 16.598l.903.902-.903.902-.902-.902.902-.902z"/>
        </g>
    </g>
</svg>
