<svg xmlns="http://www.w3.org/2000/svg" viewBox="0 0 59 59"><g fill="none" fill-rule="evenodd"><path fill="#E24D91" fill-rule="nonzero" d="M43.877 11.297a23.238 23.238 0 00-14.617-5.19c-12.773 0-23.154 10.38-23.154 23.153a23.242 23.242 0 005.19 14.617c.14.166.332.267.548.28h.038a.71.71 0 00.534-.229l25.876-25.863 5.636-5.636a.827.827 0 00.23-.585.8.8 0 00-.28-.547zm-8.638 1.298a3.827 3.827 0 01-3.816 3.816 3.827 3.827 0 01-3.817-3.816c0-2.1 1.718-3.817 3.817-3.817s3.816 1.717 3.816 3.817zM29.26 7.633h.178c-1.959.789-3.358 2.722-3.358 4.962a5.37 5.37 0 001.603 3.816h-.84a5.342 5.342 0 00-5.343 5.343v3.13a5.14 5.14 0 00-.89-.077h-.968a5.317 5.317 0 001.603-3.816 5.342 5.342 0 00-5.343-5.343 5.342 5.342 0 00-3.74 9.159h-.712a5.315 5.315 0 00-3.6 1.413C9.337 15.724 18.37 7.633 29.26 7.633zM15.902 24.807a3.827 3.827 0 01-3.816-3.816c0-2.1 1.717-3.817 3.816-3.817 2.1 0 3.817 1.718 3.817 3.817S18 24.807 15.902 24.807zm-3.944 17.43a21.741 21.741 0 01-4.325-12.38v-.025a3.84 3.84 0 013.804-3.498h9.16a3.826 3.826 0 013.803 3.46L11.958 42.236zm13.74-13.728a5.357 5.357 0 00-2.672-3.116v-3.639a3.828 3.828 0 013.817-3.816h9.414l-10.56 10.571zM37.58 16.615c-.369-.14-.738-.204-1.577-.204h-.84a5.323 5.323 0 001.603-3.816 5.37 5.37 0 00-2.15-4.288c2.748.7 5.343 1.947 7.633 3.651l-4.669 4.657zm9.643-1.972a.767.767 0 00-.547-.28.774.774 0 00-.585.229L14.59 46.09a.8.8 0 00-.228.572c.013.217.114.42.28.547a22.61 22.61 0 004.44 2.837c.101.09.241.166.381.178a22.997 22.997 0 009.796 2.189c12.773 0 23.154-10.381 23.154-23.154a23.269 23.269 0 00-5.19-14.617zm-7.786 8.752v5.483c0 1.489.624 2.85 1.603 3.817h-.84a5.343 5.343 0 00-5.342 5.343v6.59a5.475 5.475 0 00-1.527-.23h-.84a5.316 5.316 0 001.603-3.816 5.342 5.342 0 00-5.343-5.343 5.7 5.7 0 00-1.323.166l12.01-12.01zm1.527 5.483a3.827 3.827 0 013.817-3.816 3.827 3.827 0 013.816 3.816c0 2.1-1.717 3.817-3.816 3.817a3.828 3.828 0 01-3.817-3.817zm-12.213 7.888c2.1 0 3.817 1.717 3.817 3.816 0 2.1-1.718 3.817-3.817 3.817s-3.816-1.718-3.816-3.817 1.717-3.816 3.816-3.816zM19.02 48.304a20.896 20.896 0 01-2.748-1.755l7.29-7.29a5.59 5.59 0 00-.166 1.31c0 1.49.624 2.85 1.603 3.817h-.827a5.381 5.381 0 00-5.152 3.918zm10.241 2.583c-3.053 0-6.068-.649-8.829-1.883a3.822 3.822 0 013.74-3.079h9.16a3.828 3.828 0 013.804 3.474 21.374 21.374 0 01-7.875 1.488zm9.325-2.112a5.342 5.342 0 00-2.2-3.41v-7.327c0-2.1 1.717-3.817 3.816-3.817h10.113c-1.513 6.425-5.902 11.755-11.729 14.554zm9.936-16.08a5.343 5.343 0 10-7.557-7.557v-3.27l5.598-5.597a21.679 21.679 0 014.325 12.976c0 1.17-.09 2.316-.267 3.435h-2.1v.013z"/><path fill="#FFF" fill-rule="nonzero" d="M49.946 8.574C44.424 3.04 37.07 0 29.26 0S14.096 3.04 8.574 8.574C3.04 14.096 0 21.45 0 29.26s3.04 15.164 8.574 20.686C14.096 55.48 21.45 58.52 29.26 58.52s15.164-3.04 20.686-8.574C55.48 44.424 58.52 37.07 58.52 29.26s-3.04-15.164-8.574-20.686zM29.26 56.994c-15.292 0-27.733-12.442-27.733-27.734 0-15.292 12.441-27.733 27.733-27.733S56.993 13.968 56.993 29.26 44.552 56.993 29.26 56.993z"/><path stroke="#FFF" stroke-width="2" d="M46.615 15.482L15.489 46.608c1.258 1 2.632 1.862 4.408 2.716a21.99 21.99 0 009.363 2.09c6.11 0 11.649-2.484 15.66-6.495 4.01-4.01 6.494-9.549 6.494-15.659 0-4.987-1.704-9.868-4.8-13.778zM29.26 7.106c-6.11 0-11.649 2.484-15.66 6.495-4.01 4.01-6.494 9.549-6.494 15.659 0 4.996 1.702 9.862 4.794 13.77l25.686-25.672 5.452-5.453A22.243 22.243 0 0029.26 7.106z"/></g></svg>