<svg xmlns="http://www.w3.org/2000/svg" viewBox="0 0 35 35"><g fill="none" fill-rule="evenodd"><circle cx="17.5" cy="17.5" r="17.5" fill="#DAE8FC" opacity=".2"/><g fill="#FFF" fill-rule="nonzero"><path d="M17.86 10.54v-.624h.121a.37.37 0 00.37-.369V8.415a.372.372 0 00-.37-.37h-1.614a.37.37 0 00-.369.37v1.132c0 .203.166.37.37.37h.121v.623c-4.148.349-7.417 3.836-7.417 8.073 0 4.468 3.635 8.102 8.102 8.102 4.468 0 8.103-3.634 8.103-8.102 0-4.237-3.27-7.724-7.418-8.073zm-.686 14.955a6.89 6.89 0 01-6.882-6.882 6.89 6.89 0 016.882-6.882c3.795 0 6.883 3.087 6.883 6.882 0 3.795-3.088 6.882-6.883 6.882z"/><path d="M17.174 12.622v11.982a5.99 5.99 0 005.99-5.99 5.99 5.99 0 00-5.99-5.992zm-7.242.412a.37.37 0 00.522 0l.086-.086.221.221.97-.97-.222-.22.086-.086a.37.37 0 000-.522l-.8-.801a.37.37 0 00-.523 0l-1.141 1.14a.37.37 0 000 .522l.8.801z"/></g></g></svg>