<svg xmlns="http://www.w3.org/2000/svg" width="42" height="55" viewBox="0 0 42 55">
    <g fill="none" fill-rule="evenodd">
        <g fill-rule="nonzero" stroke="#051724" stroke-width=".5">
            <g>
                <path fill="#FFF" d="M39.37 0H1.27C.569 0 0 .569 0 1.27v50.8c0 .701.569 1.27 1.27 1.27h38.1c.701 0 1.27-.569 1.27-1.27V1.27c0-.701-.569-1.27-1.27-1.27zM25.4 2.54v2.54H15.24V2.54H25.4zM38.1 50.8H2.54V2.54H12.7v3.81c0 .701.569 1.27 1.27 1.27h12.7c.701 0 1.27-.569 1.27-1.27V2.54H38.1V50.8z" transform="translate(-111 -38) translate(112 39)"/>
                <path fill="#FFF" d="M7.62 36.83c0 .701.569 1.27 1.27 1.27h22.86c.701 0 1.27-.569 1.27-1.27 0-.701-.569-1.27-1.27-1.27H8.89c-.701 0-1.27.569-1.27 1.27zM31.75 43.18H8.89c-.701 0-1.27.569-1.27 1.27 0 .701.569 1.27 1.27 1.27h22.86c.701 0 1.27-.569 1.27-1.27 0-.701-.569-1.27-1.27-1.27z" transform="translate(-111 -38) translate(112 39)"/>
                <path fill="#34A9FF" d="M24.13 20.32c-.478.001-.915.271-1.13.698l-1.016 2.007-1.664-6.82c-.13-.513-.563-.891-1.089-.95-.525-.06-1.033.213-1.273.683l-2.235 4.382H11.43c-.701 0-1.27.569-1.27 1.27 0 .701.569 1.27 1.27 1.27h5.08c.478-.001.915-.271 1.13-.698l1.016-2.007 1.664 6.82c.13.514.565.894 1.092.952h.178c.478-.001.915-.271 1.13-.698l2.197-4.369h4.293c.701 0 1.27-.569 1.27-1.27 0-.701-.569-1.27-1.27-1.27h-5.08z" transform="translate(-111 -38) translate(112 39)"/>
            </g>
        </g>
    </g>
</svg>
