<svg xmlns="http://www.w3.org/2000/svg" viewBox="0 0 53 34"><defs><linearGradient id="a" x1="0%" x2="100%" y1="50%" y2="50%"><stop offset="0%" stop-color="#00F2FE"/><stop offset="2.08%" stop-color="#03EFFE"/><stop offset="29.31%" stop-color="#24D2FE"/><stop offset="55.38%" stop-color="#3CBDFE"/><stop offset="79.56%" stop-color="#4AB0FE"/><stop offset="100%" stop-color="#4FACFE"/></linearGradient></defs><path fill="url(#a)" stroke="#042941" d="M360.527 464.375l-19.05-18.889a1.697 1.697 0 00-2.378 0 5.202 5.202 0 01-7.148 0 1.696 1.696 0 00-2.377 0l-19.084 18.889a1.665 1.665 0 000 2.359c13.82 13.688 36.2 13.688 50.02 0a1.666 1.666 0 000-2.36h.017zm-25.019 9.318a31.896 31.896 0 01-21.41-8.147l9.373-9.302a18.905 18.905 0 0012.037 4.333 18.884 18.884 0 003.22-.284 1.707 1.707 0 001.317-1.083 1.687 1.687 0 00-.286-1.673 1.716 1.716 0 00-1.604-.59 15.498 15.498 0 01-12.29-3.146l5.058-5.019a8.67 8.67 0 009.306 0l11.228 11.142c-6.274 5.421-14.916 7.26-22.877 4.869a1.694 1.694 0 00-2.108 1.12 1.676 1.676 0 001.13 2.092 27.882 27.882 0 007.974 1.171 27.627 27.627 0 0018.24-6.893l3.103 3.263a31.898 31.898 0 01-21.41 8.147z" transform="translate(-309 -444)"/></svg>