<svg xmlns="http://www.w3.org/2000/svg" viewBox="0 0 42 63"><g fill="none"><path fill="#8577D1" d="M16.799 56a1.402 1.402 0 01-1.119-2.24l16.8-22.4c.267-.356.675-.56 1.121-.56a1.402 1.402 0 011.119 2.24l-16.8 22.4a1.39 1.39 0 01-1.121.56zm-9.8 0c-.292 0-.572-.09-.811-.26a1.384 1.384 0 01-.568-.906 1.39 1.39 0 01.239-1.046l18.12-25.366A1.401 1.401 0 0126.5 29c.063.37-.022.74-.24 1.044L8.142 55.412A1.404 1.404 0 017 56z"/><path fill="#FFF" d="M21 25.2c-1.701 0-3.352-.333-4.904-.99a12.59 12.59 0 01-4.006-2.7 12.59 12.59 0 01-2.7-4.006c-.657-1.552-.99-3.203-.99-4.904s.333-3.352.99-4.904a12.59 12.59 0 012.7-4.006A12.57 12.57 0 0121 0c3.289.001 6.4 1.26 8.76 3.543a12.53 12.53 0 012.721 3.862 12.453 12.453 0 011.11 4.747c.003.074 0 .15-.01.224.013.074.019.148.019.224a12.556 12.556 0 01-3.691 8.91A12.574 12.574 0 0121 25.2zm0-22.4a9.75 9.75 0 00-6.93 2.87 9.75 9.75 0 00-2.87 6.93 9.747 9.747 0 002.87 6.93A9.754 9.754 0 0021 22.4a9.753 9.753 0 006.93-2.87 9.75 9.75 0 002.87-6.93v-.001c0-.06.004-.117.011-.174a1.25 1.25 0 01-.017-.175 9.757 9.757 0 00-9.791-9.45H21zM32.2 63c-.771 0-1.4-.629-1.4-1.4V43.4c0-.771.629-1.4 1.4-1.4.771 0 1.4.629 1.4 1.4v18.2c0 .771-.629 1.4-1.4 1.4z"/><path fill="#FFF" d="M11.402 15.6c-.49 0-.951-.26-1.203-.68a1.405 1.405 0 01.48-1.921l16-9.6c.218-.13.467-.199.72-.199.496 0 .946.254 1.202.68.192.32.248.697.157 1.06-.09.362-.317.668-.638.86l-16 9.6c-.217.132-.466.2-.718.2zM35.934 63H6.066a6.03 6.03 0 01-4.29-1.777A6.034 6.034 0 010 56.933V45.08c.001-1.973.335-3.905.991-5.744a16.981 16.981 0 012.74-4.911 17.116 17.116 0 014.148-3.738 16.976 16.976 0 015.217-2.22 1.396 1.396 0 011.688 1.037c.18.75-.287 1.507-1.037 1.687A14.222 14.222 0 002.8 45.08v11.854A3.279 3.279 0 006.066 60.2h29.868a3.279 3.279 0 003.266-3.266V45.08C39.203 38.004 34 31.5 25 30.5a1.327 1.327 0 01-.853-.479 1.407 1.407 0 01-.313-1.121 1.401 1.401 0 011.601-1.165c2.008.315 6.083 1.455 7.854 2.453a17.075 17.075 0 014.57 3.741 17.046 17.046 0 013.038 5.1A17.067 17.067 0 0142 45.08v11.854c0 1.62-.631 3.144-1.777 4.29A6.031 6.031 0 0135.933 63z"/><path fill="#FFF" d="M26.6 56H1.4c-.368 0-.73-.15-.99-.41S0 54.968 0 54.6v-7c0-.368.15-.73.41-.99s.622-.41.99-.41h25.2c.368 0 .73.15.99.41s.41.622.41.99v7c0 .368-.15.73-.41.99s-.622.41-.99.41zM2.8 53.2h22.4V49H2.8v4.2z"/></g></svg>