<svg xmlns="http://www.w3.org/2000/svg" viewBox="0 0 58 58"><g fill="none"><path fill="#FFF" d="M28.6 57.2C12.805 57.2 0 44.395 0 28.6 0 12.805 12.805 0 28.6 0c15.795 0 28.6 12.805 28.6 28.6-.018 15.788-12.812 28.582-28.6 28.6zm0-55C14.02 2.2 2.2 14.02 2.2 28.6 2.2 43.18 14.02 55 28.6 55 43.18 55 55 43.18 55 28.6 54.983 14.027 43.173 2.217 28.6 2.2z"/><path d="M28.6 36.3a3.3 3.3 0 10-.001 6.599A3.3 3.3 0 0028.6 36.3zm0-22a4.045 4.045 0 00-3.859 5.25L28.6 31.9l3.86-12.35a4.045 4.045 0 00-3.86-5.25z"/><path fill="#EC3E60" d="M28.6 33a1.1 1.1 0 01-1.05-.772l-3.86-12.35a5.145 5.145 0 119.82 0l-3.86 12.35c-.143.46-.569.772-1.05.772zm0-17.6a2.944 2.944 0 00-2.81 3.822l2.81 8.99 2.81-8.99A2.941 2.941 0 0028.6 15.4zm0 28.6a4.4 4.4 0 110-8.8 4.4 4.4 0 010 8.8zm0-6.6a2.2 2.2 0 100 4.4 2.2 2.2 0 000-4.4z"/></g></svg>