<svg xmlns="http://www.w3.org/2000/svg" viewBox="0 0 32 37"><defs/><g fill="none" fill-rule="evenodd" stroke="#7B92AB" stroke-linecap="round" stroke-linejoin="round" stroke-width="2.5" transform="translate(1 2)"><path d="M15.164.016V13.09m.174-5.887l4.592-4.635m-4.94 4.635L10.4 2.568m4.765 30.505V20m-.175 5.886l-4.59 4.636m4.938-4.636l4.592 4.636m9.557-22.227L18.159 14.82m5.188-2.786l6.308 1.664m-6.482-1.967l1.726-6.291M.842 24.794l11.329-6.525m-5.188 2.787L.674 19.391m6.482 1.967l-1.725 6.291m24.053-2.85L18.157 18.27m5.013 3.091l1.724 6.292m-1.55-6.594l6.31-1.662M.846 8.291l11.325 6.529m-5.013-3.092L5.435 5.436m1.549 6.594L.675 13.692"/><circle cx="15.164" cy="16.545" r="3.218"/></g></svg>