<svg xmlns="http://www.w3.org/2000/svg" width="35" height="35" viewBox="0 0 35 35">
    <g fill="none" fill-rule="evenodd">
        <g>
            <g transform="translate(-1791 -244) translate(1791 244)">
                <circle cx="17.5" cy="17.5" r="17.5" fill="#ECDAFC" opacity=".2"/>
                <path fill="#FFF" fill-rule="nonzero" d="M23.258 16.569c-.491-.526-1.075-.958-1.535-1.545-.154-.186-.277-.402-.338-.618-.061-.216-.061-.464.061-.68.584-1.267.062-2.008-.89-2.843-.706-.587-1.198-1.297-1.842-1.946-.43-.433-.86-1.05-1.382-1.36-.706-.432-1.474-.649-2.303-.556-1.198.093-2.395.68-3.194 1.576-1.074 1.236-.951 2.595-.522 4.079.338 1.266.799 2.471 1.167 3.738.246.865.43 1.823.123 2.688-.276.804-.675 1.576-.952 2.38-.276.772-.399 1.544-.276 2.348.061.401.153.803.307 1.174.092.216.276.865.522.896h9.089c.215 0 .368-.154.43-.34.03-.154.061-.278.061-.309.184-.525.645-.71 1.013-1.112.338-.371.615-.773.86-1.205.492-.834.768-1.761.83-2.75.091-1.298-.277-2.596-1.229-3.615zm-1.351 4.295s-.46-.186 0 .37c.123.155.246.31.338.464.215.309.737.71.46 1.112-.337.525-1.228.216-1.627-.062-.614-.401-1.136-1.05-1.535-1.637l-.522-.464-2.61-1.977c-1.014-.958-1.167-1.73-1.167-1.73-.092-.495-.4-.958-.584-1.453-.122-.278-.184-.618-.368-.865-.215-.309-.491-.309-.798-.463-.308-.155-.584-.495-.707-.804-.215-.525-.184-1.112-.03-1.637.092-.31.215-.526.368-.71.583-.65 1.443-.557 1.443-.557.154 0 .277.03.369.062 1.136.401 1.105 2.07 1.105 2.07s.46 1.267.645 2.564c.184 1.298.491 1.484.491 1.484.492.432 1.167 1.205 1.167 1.205.706 1.02 1.505 1.699 1.505 1.699s.307.402 1.013.37c0 0 .676 0 1.965.897 0 0 .246.37-.921.062z"/>
            </g>
        </g>
    </g>
</svg>
