<svg xmlns="http://www.w3.org/2000/svg" viewBox="0 0 42 42"><defs><linearGradient id="a" x1="0%" x2="100%" y1="50%" y2="50%"><stop offset="0%" stop-color="#00F2FE"/><stop offset="2.08%" stop-color="#03EFFE"/><stop offset="29.31%" stop-color="#24D2FE"/><stop offset="55.38%" stop-color="#3CBDFE"/><stop offset="79.56%" stop-color="#4AB0FE"/><stop offset="100%" stop-color="#4FACFE"/></linearGradient></defs><path fill="url(#a)" stroke="#042941" d="M21.318 22.093v3.262h1.97l.149-.002c3.569-.056 6.71.755 9.33 2.413a1.55 1.55 0 11-1.658 2.621c-2.101-1.33-4.667-1.98-7.623-1.933l-.199.002h-1.97v3.482a1.55 1.55 0 11-3.1 0v-3.482h-1.892l-.199-.002c-2.957-.047-5.521.603-7.622 1.932a1.55 1.55 0 11-1.659-2.621c2.62-1.657 5.762-2.466 9.33-2.412l.15.002h1.892v-3.262h-1.892c-.051 0-.118 0-.199-.002-2.91-.049-5.445.603-7.545 1.932a1.552 1.552 0 01-2.14-.48 1.552 1.552 0 01.482-2.14c2.62-1.657 5.73-2.47 9.253-2.413l.149.002h1.892v-3.249h-1.701c-.044 0-.104 0-.177-.002-3.854-.057-5.72 1.05-6.606 1.99a1.55 1.55 0 11-2.256-2.128c1.314-1.393 3.927-3.04 8.91-2.962l.129.002h1.701V9.45H15.97c-.61 0-2.592.378-3.652 1.271a1.548 1.548 0 01-2.185-.187 1.551 1.551 0 01.187-2.185c1.794-1.51 4.581-2 5.65-2h7.674c1.168 0 3.868.42 5.733 2.005a1.549 1.549 0 11-2.008 2.362c-1.114-.947-3.024-1.266-3.725-1.266h-2.325v3.192h1.897c2.356 0 6.588.394 8.94 2.982a1.55 1.55 0 11-2.295 2.086c-1.137-1.251-3.555-1.967-6.639-1.967h-1.904v3.25h1.97l.15-.003c3.569-.056 6.71.755 9.33 2.413a1.55 1.55 0 11-1.658 2.62c-2.101-1.33-4.667-1.98-7.623-1.932l-.199.002h-1.97zm16.822 5.194a1.55 1.55 0 001.55-1.55V6.201A6.209 6.209 0 0033.488 0H6.202A6.209 6.209 0 000 6.202v27.286a6.209 6.209 0 006.202 6.202h27.286a6.209 6.209 0 006.202-6.202 1.55 1.55 0 00-3.1 0 3.105 3.105 0 01-3.102 3.101H6.202a3.104 3.104 0 01-3.101-3.1V6.201A3.103 3.103 0 016.2 3.1h27.287c1.71 0 3.101 1.39 3.101 3.1v19.535c0 .857.694 1.55 1.55 1.55z" transform="translate(1 1)"/></svg>